<?xml version="1.0" encoding="UTF-8"?>
<svg xmlns="http://www.w3.org/2000/svg" width="387" height="115" viewBox="0 0 387 115" fill="none">
  <path d="M164.758 34.6499C164.408 34.6499 164.233 34.4577 164.233 34.0733V0.891139C164.233 0.506723 164.408 0.314514 164.758 0.314514H169.213C169.563 0.314514 169.738 0.506723 169.738 0.891139V14.6253H177.548V0.891139C177.548 0.506723 177.706 0.314514 178.02 0.314514H182.476C182.825 0.314514 183 0.506723 183 0.891139V34.0733C183 34.4577 182.825 34.6499 182.476 34.6499H178.02C177.706 34.6499 177.548 34.4577 177.548 34.0733V19.5528H169.738V34.0733C169.738 34.4577 169.563 34.6499 169.213 34.6499H164.758Z" fill="#FF9696" fill-opacity="0.1"></path>
  <path d="M150.221 34.6499C149.907 34.6499 149.749 34.4577 149.749 34.0733V5.29446H144.298C143.948 5.29446 143.773 5.10226 143.773 4.71784V0.891139C143.773 0.506723 143.948 0.314514 144.298 0.314514H160.705C161.02 0.314514 161.177 0.506723 161.177 0.891139V4.71784C161.177 5.10226 161.02 5.29446 160.705 5.29446H155.254V34.0733C155.254 34.4577 155.079 34.6499 154.729 34.6499H150.221Z" fill="#FF9696" fill-opacity="0.1"></path>
  <path d="M124.312 34.6499C123.962 34.6499 123.823 34.4403 123.893 34.0209L130.864 0.786299C130.934 0.471776 131.127 0.314514 131.441 0.314514H137.365C137.679 0.314514 137.871 0.471776 137.941 0.786299L144.913 34.0209C144.983 34.4403 144.861 34.6499 144.546 34.6499H139.566C139.287 34.6499 139.112 34.5102 139.042 34.2306L135.53 13.1051C135.32 11.882 135.111 10.6763 134.901 9.4881C134.726 8.26496 134.569 7.05929 134.429 5.87109H134.324C134.15 7.05929 133.975 8.26496 133.8 9.4881C133.66 10.6763 133.486 11.882 133.276 13.1051L129.659 34.2306C129.624 34.5102 129.467 34.6499 129.187 34.6499H124.312ZM130.026 27.1014L130.864 22.436H137.784L138.675 27.1014H130.026Z" fill="#FF9696" fill-opacity="0.1"></path>
  <path d="M108.343 34.6499C108.028 34.6499 107.871 34.4577 107.871 34.0733V0.891139C107.871 0.506723 108.028 0.314514 108.343 0.314514H114.791C118.076 0.314514 120.487 1.20566 122.025 2.98796C123.597 4.77026 124.384 7.56602 124.384 11.3752C124.384 14.9049 123.58 17.6133 121.972 19.5004C120.4 21.3876 118.076 22.3311 115 22.3311H113.375V34.0733C113.375 34.4577 113.218 34.6499 112.904 34.6499H108.343ZM113.375 17.3512H114.791C116.223 17.3512 117.254 16.8619 117.883 15.8834C118.547 14.9049 118.879 13.4196 118.879 11.4277C118.879 9.226 118.547 7.65339 117.883 6.70982C117.254 5.76625 116.258 5.29446 114.896 5.29446H113.375V17.3512Z" fill="#FF9696" fill-opacity="0.1"></path>
  <path d="M94.2631 34.9645C91.1528 34.9645 88.7764 34.0559 87.1339 32.2386C85.5264 30.4214 84.7226 27.713 84.7226 24.1134V10.9035C84.7226 7.26898 85.5264 4.54311 87.1339 2.72587C88.7764 0.908622 91.1528 0 94.2631 0C97.3385 0 99.6974 0.908622 101.34 2.72587C102.982 4.54311 103.804 7.26898 103.804 10.9035V24.1134C103.804 27.713 102.982 30.4214 101.34 32.2386C99.6974 34.0559 97.3385 34.9645 94.2631 34.9645ZM94.2631 29.9321C95.6261 29.9321 96.6395 29.4603 97.3035 28.5168C98.0025 27.5732 98.3519 26.018 98.3519 23.8513V11.1656C98.3519 8.96391 98.0025 7.39129 97.3035 6.44772C96.6395 5.50415 95.6261 5.03237 94.2631 5.03237C92.9002 5.03237 91.8693 5.50415 91.1703 6.44772C90.5063 7.39129 90.1743 8.96391 90.1743 11.1656V23.8513C90.1743 26.018 90.5063 27.5732 91.1703 28.5168C91.8693 29.4603 92.9002 29.9321 94.2631 29.9321Z" fill="#AB1B1B" fill-opacity="0.1"></path>
  <path d="M72.0459 34.9645C68.9356 34.9645 66.5592 34.0559 64.9167 32.2386C63.3091 30.3864 62.5053 27.5208 62.5053 23.6416V11.3228C62.5053 7.54855 63.3091 4.71784 64.9167 2.83071C66.5592 0.943568 68.9356 0 72.0459 0C74.2126 0 76.0298 0.489257 77.4976 1.46777C78.9654 2.44629 80.0138 3.8267 80.6428 5.60899C81.3068 7.39129 81.499 9.48811 81.2195 11.8995C81.1496 12.2489 80.9923 12.4237 80.7477 12.4237H76.1871C75.8376 12.4237 75.6978 12.2315 75.7677 11.847C75.9425 9.61043 75.7328 7.9155 75.1387 6.76225C74.5446 5.609 73.4962 5.03237 71.9935 5.03237C70.6305 5.03237 69.6171 5.5391 68.9531 6.55256C68.2891 7.56603 67.9571 9.22601 67.9571 11.5325V23.3271C67.9571 25.7035 68.2891 27.3985 68.9531 28.4119C69.652 29.4254 70.6829 29.9321 72.0459 29.9321C73.6185 29.9321 74.6669 29.3205 75.1911 28.0974C75.7153 26.8393 75.925 25.1793 75.8202 23.1174C75.7852 22.6981 75.925 22.4884 76.2395 22.4884H80.6953C81.0098 22.4884 81.202 22.6981 81.2719 23.1174C81.5515 26.7869 80.9049 29.6875 79.3323 31.8192C77.7947 33.9161 75.3658 34.9645 72.0459 34.9645Z" fill="#AB1B1B" fill-opacity="0.1"></path>
  <path d="M49.2655 34.9645C46.1202 34.9645 43.7788 34.0209 42.2411 32.1338C40.7384 30.2117 39.987 27.3286 39.987 23.4844V0.83872C39.987 0.48925 40.1443 0.314514 40.4588 0.314514H45.0194C45.3339 0.314514 45.4912 0.48925 45.4912 0.83872V23.3271C45.4912 25.7035 45.7882 27.3984 46.3823 28.4119C46.9764 29.4254 47.9375 29.9321 49.2655 29.9321C50.6284 29.9321 51.6069 29.4428 52.201 28.4643C52.7951 27.4509 53.0922 25.7385 53.0922 23.3271V0.83872C53.0922 0.48925 53.2494 0.314514 53.5639 0.314514H58.1245C58.439 0.314514 58.5963 0.48925 58.5963 0.83872V23.4844C58.5963 27.3286 57.81 30.2117 56.2374 32.1338C54.6997 34.0209 52.3757 34.9645 49.2655 34.9645Z" fill="#AB1B1B" fill-opacity="0.1"></path>
  <path d="M23.9287 34.6499C23.5793 34.6499 23.4045 34.4577 23.4045 34.0733V0.891139C23.4045 0.506723 23.5793 0.314514 23.9287 0.314514H28.3845C28.734 0.314514 28.9087 0.506723 28.9087 0.891139V29.67H37.2436C37.593 29.67 37.7678 29.8622 37.7678 30.2466V34.0733C37.7678 34.4577 37.593 34.6499 37.2436 34.6499H23.9287Z" fill="#AB1B1B" fill-opacity="0.1"></path>
  <path d="M8.02034 34.9645C5.39931 34.9645 3.40733 34.0733 2.0444 32.291C0.681467 30.5087 0 27.8003 0 24.1659V11.2704C0 7.60098 0.803781 4.80521 2.41134 2.88313C4.05385 0.961042 6.41278 0 9.48811 0C12.6333 0 15.0097 0.995989 16.6173 2.98797C18.2249 4.97995 18.9063 7.68834 18.6617 11.1131C18.6268 11.4976 18.4695 11.6898 18.1899 11.6898L13.6293 11.6374C13.3148 11.6374 13.175 11.4626 13.21 11.1131C13.3847 9.19106 13.1575 7.70581 12.5285 6.6574C11.8995 5.57405 10.9035 5.03237 9.54053 5.03237C8.14265 5.03237 7.11172 5.5391 6.44772 6.55256C5.78373 7.56603 5.45173 9.15611 5.45173 11.3228V23.7465C5.45173 25.9831 5.73131 27.5732 6.29046 28.5168C6.88456 29.4603 7.89802 29.9321 9.33085 29.9321C10.6588 29.9321 11.6723 29.4079 12.3712 28.3595C13.0702 27.2761 13.4197 25.6511 13.4197 23.4844V21.1255H9.80264C9.48811 21.1255 9.33085 20.9333 9.33085 20.5488V17.456C9.33085 17.0716 9.48811 16.8794 9.80264 16.8794H18.2948C18.6093 16.8794 18.7665 17.0716 18.7665 17.456V27.049C18.7665 28.7264 18.784 30.1068 18.819 31.1902C18.8889 32.2386 18.9762 33.1822 19.0811 34.0209C19.151 34.4403 19.0112 34.65 18.6617 34.65H15.0971C14.7826 34.65 14.6078 34.4927 14.5729 34.1782C14.503 33.7588 14.4331 33.2695 14.3632 32.7104C14.3283 32.1163 14.3108 31.3999 14.3108 30.5612H14.206C13.6818 31.9241 12.9304 33.0074 11.9519 33.8112C10.9734 34.5801 9.66285 34.9645 8.02034 34.9645Z" fill="#AB1B1B" fill-opacity="0.1"></path>
  <path d="M367.758 34.6499C367.408 34.6499 367.233 34.4577 367.233 34.0733V0.891139C367.233 0.506723 367.408 0.314514 367.758 0.314514H372.213C372.563 0.314514 372.738 0.506723 372.738 0.891139V14.6253H380.548V0.891139C380.548 0.506723 380.706 0.314514 381.02 0.314514H385.476C385.825 0.314514 386 0.506723 386 0.891139V34.0733C386 34.4577 385.825 34.6499 385.476 34.6499H381.02C380.706 34.6499 380.548 34.4577 380.548 34.0733V19.5528H372.738V34.0733C372.738 34.4577 372.563 34.6499 372.213 34.6499H367.758Z" fill="#FF9696" fill-opacity="0.1"></path>
  <path d="M353.221 34.6499C352.907 34.6499 352.749 34.4577 352.749 34.0733V5.29446H347.298C346.948 5.29446 346.773 5.10226 346.773 4.71784V0.891139C346.773 0.506723 346.948 0.314514 347.298 0.314514H363.705C364.02 0.314514 364.177 0.506723 364.177 0.891139V4.71784C364.177 5.10226 364.02 5.29446 363.705 5.29446H358.254V34.0733C358.254 34.4577 358.079 34.6499 357.729 34.6499H353.221Z" fill="#FF9696" fill-opacity="0.1"></path>
  <path d="M327.312 34.6499C326.962 34.6499 326.823 34.4403 326.893 34.0209L333.865 0.786299C333.934 0.471776 334.127 0.314514 334.441 0.314514H340.365C340.679 0.314514 340.871 0.471776 340.941 0.786299L347.913 34.0209C347.983 34.4403 347.861 34.6499 347.546 34.6499H342.566C342.287 34.6499 342.112 34.5102 342.042 34.2306L338.53 13.1051C338.32 11.882 338.111 10.6763 337.901 9.4881C337.726 8.26496 337.569 7.05929 337.429 5.87109H337.324C337.15 7.05929 336.975 8.26496 336.8 9.4881C336.66 10.6763 336.486 11.882 336.276 13.1051L332.659 34.2306C332.624 34.5102 332.467 34.6499 332.187 34.6499H327.312ZM333.026 27.1014L333.865 22.436H340.784L341.675 27.1014H333.026Z" fill="#FF9696" fill-opacity="0.1"></path>
  <path d="M311.343 34.6499C311.028 34.6499 310.871 34.4577 310.871 34.0733V0.891139C310.871 0.506723 311.028 0.314514 311.343 0.314514H317.791C321.076 0.314514 323.487 1.20566 325.025 2.98796C326.597 4.77026 327.384 7.56602 327.384 11.3752C327.384 14.9049 326.58 17.6133 324.972 19.5004C323.4 21.3876 321.076 22.3311 318 22.3311H316.375V34.0733C316.375 34.4577 316.218 34.6499 315.904 34.6499H311.343ZM316.375 17.3512H317.791C319.223 17.3512 320.254 16.8619 320.883 15.8834C321.547 14.9049 321.879 13.4196 321.879 11.4277C321.879 9.226 321.547 7.65339 320.883 6.70982C320.254 5.76625 319.258 5.29446 317.896 5.29446H316.375V17.3512Z" fill="#FF9696" fill-opacity="0.1"></path>
  <path d="M297.263 34.9645C294.153 34.9645 291.776 34.0559 290.134 32.2386C288.526 30.4214 287.723 27.713 287.723 24.1134V10.9035C287.723 7.26898 288.526 4.54311 290.134 2.72587C291.776 0.908622 294.153 0 297.263 0C300.338 0 302.697 0.908622 304.34 2.72587C305.982 4.54311 306.804 7.26898 306.804 10.9035V24.1134C306.804 27.713 305.982 30.4214 304.34 32.2386C302.697 34.0559 300.338 34.9645 297.263 34.9645ZM297.263 29.9321C298.626 29.9321 299.64 29.4603 300.304 28.5168C301.002 27.5732 301.352 26.018 301.352 23.8513V11.1656C301.352 8.96391 301.002 7.39129 300.304 6.44772C299.64 5.50415 298.626 5.03237 297.263 5.03237C295.9 5.03237 294.869 5.50415 294.17 6.44772C293.506 7.39129 293.174 8.96391 293.174 11.1656V23.8513C293.174 26.018 293.506 27.5732 294.17 28.5168C294.869 29.4603 295.9 29.9321 297.263 29.9321Z" fill="#AB1B1B" fill-opacity="0.1"></path>
  <path d="M275.046 34.9645C271.936 34.9645 269.559 34.0559 267.917 32.2386C266.309 30.3864 265.505 27.5208 265.505 23.6416V11.3228C265.505 7.54855 266.309 4.71784 267.917 2.83071C269.559 0.943568 271.936 0 275.046 0C277.213 0 279.03 0.489257 280.498 1.46777C281.965 2.44629 283.014 3.8267 283.643 5.60899C284.307 7.39129 284.499 9.48811 284.219 11.8995C284.15 12.2489 283.992 12.4237 283.748 12.4237H279.187C278.838 12.4237 278.698 12.2315 278.768 11.847C278.942 9.61043 278.733 7.9155 278.139 6.76225C277.545 5.609 276.496 5.03237 274.993 5.03237C273.63 5.03237 272.617 5.5391 271.953 6.55256C271.289 7.56603 270.957 9.22601 270.957 11.5325V23.3271C270.957 25.7035 271.289 27.3985 271.953 28.4119C272.652 29.4254 273.683 29.9321 275.046 29.9321C276.618 29.9321 277.667 29.3205 278.191 28.0974C278.715 26.8393 278.925 25.1793 278.82 23.1174C278.785 22.6981 278.925 22.4884 279.239 22.4884H283.695C284.01 22.4884 284.202 22.6981 284.272 23.1174C284.551 26.7869 283.905 29.6875 282.332 31.8192C280.795 33.9161 278.366 34.9645 275.046 34.9645Z" fill="#AB1B1B" fill-opacity="0.1"></path>
  <path d="M252.265 34.9645C249.12 34.9645 246.779 34.0209 245.241 32.1338C243.738 30.2117 242.987 27.3286 242.987 23.4844V0.83872C242.987 0.48925 243.144 0.314514 243.459 0.314514H248.019C248.334 0.314514 248.491 0.48925 248.491 0.83872V23.3271C248.491 25.7035 248.788 27.3984 249.382 28.4119C249.976 29.4254 250.937 29.9321 252.265 29.9321C253.628 29.9321 254.607 29.4428 255.201 28.4643C255.795 27.4509 256.092 25.7385 256.092 23.3271V0.83872C256.092 0.48925 256.249 0.314514 256.564 0.314514H261.124C261.439 0.314514 261.596 0.48925 261.596 0.83872V23.4844C261.596 27.3286 260.81 30.2117 259.237 32.1338C257.7 34.0209 255.376 34.9645 252.265 34.9645Z" fill="#AB1B1B" fill-opacity="0.1"></path>
  <path d="M226.929 34.6499C226.579 34.6499 226.405 34.4577 226.405 34.0733V0.891139C226.405 0.506723 226.579 0.314514 226.929 0.314514H231.384C231.734 0.314514 231.909 0.506723 231.909 0.891139V29.67H240.244C240.593 29.67 240.768 29.8622 240.768 30.2466V34.0733C240.768 34.4577 240.593 34.6499 240.244 34.6499H226.929Z" fill="#AB1B1B" fill-opacity="0.1"></path>
  <path d="M211.02 34.9645C208.399 34.9645 206.407 34.0733 205.044 32.291C203.681 30.5087 203 27.8003 203 24.1659V11.2704C203 7.60098 203.804 4.80521 205.411 2.88313C207.054 0.961042 209.413 0 212.488 0C215.633 0 218.01 0.995989 219.617 2.98797C221.225 4.97995 221.906 7.68834 221.662 11.1131C221.627 11.4976 221.469 11.6898 221.19 11.6898L216.629 11.6374C216.315 11.6374 216.175 11.4626 216.21 11.1131C216.385 9.19106 216.158 7.70581 215.529 6.6574C214.899 5.57405 213.903 5.03237 212.541 5.03237C211.143 5.03237 210.112 5.5391 209.448 6.55256C208.784 7.56603 208.452 9.15611 208.452 11.3228V23.7465C208.452 25.9831 208.731 27.5732 209.29 28.5168C209.885 29.4603 210.898 29.9321 212.331 29.9321C213.659 29.9321 214.672 29.4079 215.371 28.3595C216.07 27.2761 216.42 25.6511 216.42 23.4844V21.1255H212.803C212.488 21.1255 212.331 20.9333 212.331 20.5488V17.456C212.331 17.0716 212.488 16.8794 212.803 16.8794H221.295C221.609 16.8794 221.767 17.0716 221.767 17.456V27.049C221.767 28.7264 221.784 30.1068 221.819 31.1902C221.889 32.2386 221.976 33.1822 222.081 34.0209C222.151 34.4403 222.011 34.65 221.662 34.65H218.097C217.783 34.65 217.608 34.4927 217.573 34.1782C217.503 33.7588 217.433 33.2695 217.363 32.7104C217.328 32.1163 217.311 31.3999 217.311 30.5612H217.206C216.682 31.9241 215.93 33.0074 214.952 33.8112C213.973 34.5801 212.663 34.9645 211.02 34.9645Z" fill="#AB1B1B" fill-opacity="0.1"></path>
  <path d="M164.758 74.6144C164.408 74.6144 164.233 74.4222 164.233 74.0378V40.8556C164.233 40.4712 164.408 40.279 164.758 40.279H169.213C169.563 40.279 169.738 40.4712 169.738 40.8556V54.5898H177.548V40.8556C177.548 40.4712 177.706 40.279 178.02 40.279H182.476C182.825 40.279 183 40.4712 183 40.8556V74.0378C183 74.4222 182.825 74.6144 182.476 74.6144H178.02C177.706 74.6144 177.548 74.4222 177.548 74.0378V59.5173H169.738V74.0378C169.738 74.4222 169.563 74.6144 169.213 74.6144H164.758Z" fill="#FF9696" fill-opacity="0.1"></path>
  <path d="M150.221 74.6144C149.907 74.6144 149.749 74.4222 149.749 74.0378V45.2589H144.298C143.948 45.2589 143.773 45.0667 143.773 44.6823V40.8556C143.773 40.4712 143.948 40.279 144.298 40.279H160.705C161.02 40.279 161.177 40.4712 161.177 40.8556V44.6823C161.177 45.0667 161.02 45.2589 160.705 45.2589H155.254V74.0378C155.254 74.4222 155.079 74.6144 154.729 74.6144H150.221Z" fill="#FF9696" fill-opacity="0.1"></path>
  <path d="M124.312 74.6144C123.962 74.6144 123.823 74.4047 123.893 73.9854L130.864 40.7508C130.934 40.4363 131.127 40.279 131.441 40.279H137.365C137.679 40.279 137.871 40.4363 137.941 40.7508L144.913 73.9854C144.983 74.4047 144.861 74.6144 144.546 74.6144H139.566C139.287 74.6144 139.112 74.4746 139.042 74.1951L135.53 53.0696C135.32 51.8465 135.111 50.6408 134.901 49.4526C134.726 48.2294 134.569 47.0238 134.429 45.8356H134.324C134.15 47.0238 133.975 48.2294 133.8 49.4526C133.66 50.6408 133.486 51.8465 133.276 53.0696L129.659 74.1951C129.624 74.4746 129.467 74.6144 129.187 74.6144H124.312ZM130.026 67.0659L130.864 62.4004H137.784L138.675 67.0659H130.026Z" fill="#FF9696" fill-opacity="0.1"></path>
  <path d="M108.343 74.6144C108.028 74.6144 107.871 74.4222 107.871 74.0378V40.8556C107.871 40.4712 108.028 40.279 108.343 40.279H114.791C118.076 40.279 120.487 41.1701 122.025 42.9524C123.597 44.7347 124.384 47.5305 124.384 51.3397C124.384 54.8694 123.58 57.5778 121.972 59.4649C120.4 61.352 118.076 62.2956 115 62.2956H113.375V74.0378C113.375 74.4222 113.218 74.6144 112.904 74.6144H108.343ZM113.375 57.3157H114.791C116.223 57.3157 117.254 56.8264 117.883 55.8479C118.547 54.8694 118.879 53.3841 118.879 51.3921C118.879 49.1905 118.547 47.6179 117.883 46.6743C117.254 45.7307 116.258 45.2589 114.896 45.2589H113.375V57.3157Z" fill="#FF9696" fill-opacity="0.1"></path>
  <path d="M94.2631 74.929C91.1528 74.929 88.7764 74.0203 87.1339 72.2031C85.5264 70.3858 84.7226 67.6775 84.7226 64.0779V50.8679C84.7226 47.2335 85.5264 44.5076 87.1339 42.6903C88.7764 40.8731 91.1528 39.9645 94.2631 39.9645C97.3385 39.9645 99.6974 40.8731 101.34 42.6903C102.982 44.5076 103.804 47.2335 103.804 50.8679V64.0779C103.804 67.6775 102.982 70.3858 101.34 72.2031C99.6974 74.0203 97.3385 74.929 94.2631 74.929ZM94.2631 69.8966C95.6261 69.8966 96.6395 69.4248 97.3035 68.4812C98.0025 67.5377 98.3519 65.9825 98.3519 63.8158V51.13C98.3519 48.9284 98.0025 47.3558 97.3035 46.4122C96.6395 45.4686 95.6261 44.9968 94.2631 44.9968C92.9002 44.9968 91.8693 45.4686 91.1703 46.4122C90.5063 47.3558 90.1743 48.9284 90.1743 51.13V63.8158C90.1743 65.9825 90.5063 67.5377 91.1703 68.4812C91.8693 69.4248 92.9002 69.8966 94.2631 69.8966Z" fill="#AB1B1B" fill-opacity="0.1"></path>
  <path d="M72.0459 74.929C68.9356 74.929 66.5592 74.0203 64.9167 72.2031C63.3091 70.3509 62.5053 67.4852 62.5053 63.6061V51.2873C62.5053 47.513 63.3091 44.6823 64.9167 42.7952C66.5592 40.908 68.9356 39.9645 72.0459 39.9645C74.2126 39.9645 76.0298 40.4537 77.4976 41.4323C78.9654 42.4108 80.0138 43.7912 80.6428 45.5735C81.3068 47.3558 81.499 49.4526 81.2195 51.8639C81.1496 52.2134 80.9923 52.3881 80.7477 52.3881H76.1871C75.8376 52.3881 75.6978 52.1959 75.7677 51.8115C75.9425 49.5749 75.7328 47.88 75.1387 46.7267C74.5446 45.5735 73.4962 44.9968 71.9935 44.9968C70.6305 44.9968 69.6171 45.5036 68.9531 46.517C68.2891 47.5305 67.9571 49.1905 67.9571 51.497V63.2916C67.9571 65.668 68.2891 67.3629 68.9531 68.3764C69.652 69.3899 70.6829 69.8966 72.0459 69.8966C73.6185 69.8966 74.6669 69.285 75.1911 68.0619C75.7153 66.8038 75.925 65.1438 75.8202 63.0819C75.7852 62.6626 75.925 62.4529 76.2395 62.4529H80.6953C81.0098 62.4529 81.202 62.6626 81.2719 63.0819C81.5515 66.7514 80.9049 69.652 79.3323 71.7837C77.7947 73.8805 75.3658 74.929 72.0459 74.929Z" fill="#AB1B1B" fill-opacity="0.1"></path>
  <path d="M49.2655 74.9289C46.1202 74.9289 43.7788 73.9854 42.2411 72.0982C40.7384 70.1762 39.987 67.293 39.987 63.4489V40.8032C39.987 40.4537 40.1443 40.279 40.4588 40.279H45.0194C45.3339 40.279 45.4912 40.4537 45.4912 40.8032V63.2916C45.4912 65.668 45.7882 67.3629 46.3823 68.3764C46.9764 69.3898 47.9375 69.8966 49.2655 69.8966C50.6284 69.8966 51.6069 69.4073 52.201 68.4288C52.7951 67.4153 53.0922 65.7029 53.0922 63.2916V40.8032C53.0922 40.4537 53.2494 40.279 53.5639 40.279H58.1245C58.439 40.279 58.5963 40.4537 58.5963 40.8032V63.4489C58.5963 67.293 57.81 70.1762 56.2374 72.0982C54.6997 73.9854 52.3757 74.9289 49.2655 74.9289Z" fill="#AB1B1B" fill-opacity="0.1"></path>
  <path d="M23.9287 74.6144C23.5793 74.6144 23.4045 74.4222 23.4045 74.0378V40.8556C23.4045 40.4712 23.5793 40.279 23.9287 40.279H28.3845C28.734 40.279 28.9087 40.4712 28.9087 40.8556V69.6345H37.2436C37.593 69.6345 37.7678 69.8267 37.7678 70.2111V74.0378C37.7678 74.4222 37.593 74.6144 37.2436 74.6144H23.9287Z" fill="#AB1B1B" fill-opacity="0.1"></path>
  <path d="M8.02034 74.929C5.39931 74.929 3.40733 74.0378 2.0444 72.2555C0.681467 70.4732 0 67.7648 0 64.1303V51.2349C0 47.5655 0.803781 44.7697 2.41134 42.8476C4.05385 40.9255 6.41278 39.9645 9.48811 39.9645C12.6333 39.9645 15.0097 40.9605 16.6173 42.9524C18.2249 44.9444 18.9063 47.6528 18.6617 51.0776C18.6268 51.462 18.4695 51.6543 18.1899 51.6543L13.6293 51.6018C13.3148 51.6018 13.175 51.4271 13.21 51.0776C13.3847 49.1555 13.1575 47.6703 12.5285 46.6219C11.8995 45.5385 10.9035 44.9968 9.54053 44.9968C8.14265 44.9968 7.11172 45.5036 6.44772 46.517C5.78373 47.5305 5.45173 49.1206 5.45173 51.2873V63.711C5.45173 65.9476 5.73131 67.5377 6.29046 68.4812C6.88456 69.4248 7.89802 69.8966 9.33085 69.8966C10.6588 69.8966 11.6723 69.3724 12.3712 68.324C13.0702 67.2406 13.4197 65.6156 13.4197 63.4489V61.0899H9.80264C9.48811 61.0899 9.33085 60.8977 9.33085 60.5133V57.4205C9.33085 57.0361 9.48811 56.8439 9.80264 56.8439H18.2948C18.6093 56.8439 18.7665 57.0361 18.7665 57.4205V67.0135C18.7665 68.6909 18.784 70.0713 18.819 71.1547C18.8889 72.2031 18.9762 73.1467 19.0811 73.9854C19.151 74.4047 19.0112 74.6144 18.6617 74.6144H15.0971C14.7826 74.6144 14.6078 74.4572 14.5729 74.1427C14.503 73.7233 14.4331 73.234 14.3632 72.6749C14.3283 72.0808 14.3108 71.3644 14.3108 70.5256H14.206C13.6818 71.8886 12.9304 72.9719 11.9519 73.7757C10.9734 74.5445 9.66285 74.929 8.02034 74.929Z" fill="#AB1B1B" fill-opacity="0.1"></path>
  <path d="M367.758 74.6144C367.408 74.6144 367.233 74.4222 367.233 74.0378V40.8556C367.233 40.4712 367.408 40.279 367.758 40.279H372.213C372.563 40.279 372.738 40.4712 372.738 40.8556V54.5898H380.548V40.8556C380.548 40.4712 380.706 40.279 381.02 40.279H385.476C385.825 40.279 386 40.4712 386 40.8556V74.0378C386 74.4222 385.825 74.6144 385.476 74.6144H381.02C380.706 74.6144 380.548 74.4222 380.548 74.0378V59.5173H372.738V74.0378C372.738 74.4222 372.563 74.6144 372.213 74.6144H367.758Z" fill="#FF9696" fill-opacity="0.1"></path>
  <path d="M353.221 74.6144C352.907 74.6144 352.749 74.4222 352.749 74.0378V45.2589H347.298C346.948 45.2589 346.773 45.0667 346.773 44.6823V40.8556C346.773 40.4712 346.948 40.279 347.298 40.279H363.705C364.02 40.279 364.177 40.4712 364.177 40.8556V44.6823C364.177 45.0667 364.02 45.2589 363.705 45.2589H358.254V74.0378C358.254 74.4222 358.079 74.6144 357.729 74.6144H353.221Z" fill="#FF9696" fill-opacity="0.1"></path>
  <path d="M327.312 74.6144C326.962 74.6144 326.823 74.4047 326.893 73.9854L333.865 40.7508C333.934 40.4363 334.127 40.279 334.441 40.279H340.365C340.679 40.279 340.871 40.4363 340.941 40.7508L347.913 73.9854C347.983 74.4047 347.861 74.6144 347.546 74.6144H342.566C342.287 74.6144 342.112 74.4746 342.042 74.1951L338.53 53.0696C338.32 51.8465 338.111 50.6408 337.901 49.4526C337.726 48.2294 337.569 47.0238 337.429 45.8356H337.324C337.15 47.0238 336.975 48.2294 336.8 49.4526C336.66 50.6408 336.486 51.8465 336.276 53.0696L332.659 74.1951C332.624 74.4746 332.467 74.6144 332.187 74.6144H327.312ZM333.026 67.0659L333.865 62.4004H340.784L341.675 67.0659H333.026Z" fill="#FF9696" fill-opacity="0.1"></path>
  <path d="M311.343 74.6144C311.028 74.6144 310.871 74.4222 310.871 74.0378V40.8556C310.871 40.4712 311.028 40.279 311.343 40.279H317.791C321.076 40.279 323.487 41.1701 325.025 42.9524C326.597 44.7347 327.384 47.5305 327.384 51.3397C327.384 54.8694 326.58 57.5778 324.972 59.4649C323.4 61.352 321.076 62.2956 318 62.2956H316.375V74.0378C316.375 74.4222 316.218 74.6144 315.904 74.6144H311.343ZM316.375 57.3157H317.791C319.223 57.3157 320.254 56.8264 320.883 55.8479C321.547 54.8694 321.879 53.3841 321.879 51.3921C321.879 49.1905 321.547 47.6179 320.883 46.6743C320.254 45.7307 319.258 45.2589 317.896 45.2589H316.375V57.3157Z" fill="#FF9696" fill-opacity="0.1"></path>
  <path d="M297.263 74.929C294.153 74.929 291.776 74.0203 290.134 72.2031C288.526 70.3858 287.723 67.6775 287.723 64.0779V50.8679C287.723 47.2335 288.526 44.5076 290.134 42.6903C291.776 40.8731 294.153 39.9645 297.263 39.9645C300.338 39.9645 302.697 40.8731 304.34 42.6903C305.982 44.5076 306.804 47.2335 306.804 50.8679V64.0779C306.804 67.6775 305.982 70.3858 304.34 72.2031C302.697 74.0203 300.338 74.929 297.263 74.929ZM297.263 69.8966C298.626 69.8966 299.64 69.4248 300.304 68.4812C301.002 67.5377 301.352 65.9825 301.352 63.8158V51.13C301.352 48.9284 301.002 47.3558 300.304 46.4122C299.64 45.4686 298.626 44.9968 297.263 44.9968C295.9 44.9968 294.869 45.4686 294.17 46.4122C293.506 47.3558 293.174 48.9284 293.174 51.13V63.8158C293.174 65.9825 293.506 67.5377 294.17 68.4812C294.869 69.4248 295.9 69.8966 297.263 69.8966Z" fill="#AB1B1B" fill-opacity="0.1"></path>
  <path d="M275.046 74.929C271.936 74.929 269.559 74.0203 267.917 72.2031C266.309 70.3509 265.505 67.4852 265.505 63.6061V51.2873C265.505 47.513 266.309 44.6823 267.917 42.7952C269.559 40.908 271.936 39.9645 275.046 39.9645C277.213 39.9645 279.03 40.4537 280.498 41.4323C281.965 42.4108 283.014 43.7912 283.643 45.5735C284.307 47.3558 284.499 49.4526 284.219 51.8639C284.15 52.2134 283.992 52.3881 283.748 52.3881H279.187C278.838 52.3881 278.698 52.1959 278.768 51.8115C278.942 49.5749 278.733 47.88 278.139 46.7267C277.545 45.5735 276.496 44.9968 274.993 44.9968C273.63 44.9968 272.617 45.5036 271.953 46.517C271.289 47.5305 270.957 49.1905 270.957 51.497V63.2916C270.957 65.668 271.289 67.3629 271.953 68.3764C272.652 69.3899 273.683 69.8966 275.046 69.8966C276.618 69.8966 277.667 69.285 278.191 68.0619C278.715 66.8038 278.925 65.1438 278.82 63.0819C278.785 62.6626 278.925 62.4529 279.239 62.4529H283.695C284.01 62.4529 284.202 62.6626 284.272 63.0819C284.551 66.7514 283.905 69.652 282.332 71.7837C280.795 73.8805 278.366 74.929 275.046 74.929Z" fill="#AB1B1B" fill-opacity="0.1"></path>
  <path d="M252.265 74.9289C249.12 74.9289 246.779 73.9854 245.241 72.0982C243.738 70.1762 242.987 67.293 242.987 63.4489V40.8032C242.987 40.4537 243.144 40.279 243.459 40.279H248.019C248.334 40.279 248.491 40.4537 248.491 40.8032V63.2916C248.491 65.668 248.788 67.3629 249.382 68.3764C249.976 69.3898 250.937 69.8966 252.265 69.8966C253.628 69.8966 254.607 69.4073 255.201 68.4288C255.795 67.4153 256.092 65.7029 256.092 63.2916V40.8032C256.092 40.4537 256.249 40.279 256.564 40.279H261.124C261.439 40.279 261.596 40.4537 261.596 40.8032V63.4489C261.596 67.293 260.81 70.1762 259.237 72.0982C257.7 73.9854 255.376 74.9289 252.265 74.9289Z" fill="#AB1B1B" fill-opacity="0.1"></path>
  <path d="M226.929 74.6144C226.579 74.6144 226.405 74.4222 226.405 74.0378V40.8556C226.405 40.4712 226.579 40.279 226.929 40.279H231.384C231.734 40.279 231.909 40.4712 231.909 40.8556V69.6345H240.244C240.593 69.6345 240.768 69.8267 240.768 70.2111V74.0378C240.768 74.4222 240.593 74.6144 240.244 74.6144H226.929Z" fill="#AB1B1B" fill-opacity="0.1"></path>
  <path d="M211.02 74.929C208.399 74.929 206.407 74.0378 205.044 72.2555C203.681 70.4732 203 67.7648 203 64.1303V51.2349C203 47.5655 203.804 44.7697 205.411 42.8476C207.054 40.9255 209.413 39.9645 212.488 39.9645C215.633 39.9645 218.01 40.9605 219.617 42.9524C221.225 44.9444 221.906 47.6528 221.662 51.0776C221.627 51.462 221.469 51.6543 221.19 51.6543L216.629 51.6018C216.315 51.6018 216.175 51.4271 216.21 51.0776C216.385 49.1555 216.158 47.6703 215.529 46.6219C214.899 45.5385 213.903 44.9968 212.541 44.9968C211.143 44.9968 210.112 45.5036 209.448 46.517C208.784 47.5305 208.452 49.1206 208.452 51.2873V63.711C208.452 65.9476 208.731 67.5377 209.29 68.4812C209.885 69.4248 210.898 69.8966 212.331 69.8966C213.659 69.8966 214.672 69.3724 215.371 68.324C216.07 67.2406 216.42 65.6156 216.42 63.4489V61.0899H212.803C212.488 61.0899 212.331 60.8977 212.331 60.5133V57.4205C212.331 57.0361 212.488 56.8439 212.803 56.8439H221.295C221.609 56.8439 221.767 57.0361 221.767 57.4205V67.0135C221.767 68.6909 221.784 70.0713 221.819 71.1547C221.889 72.2031 221.976 73.1467 222.081 73.9854C222.151 74.4047 222.011 74.6144 221.662 74.6144H218.097C217.783 74.6144 217.608 74.4572 217.573 74.1427C217.503 73.7233 217.433 73.234 217.363 72.6749C217.328 72.0808 217.311 71.3644 217.311 70.5256H217.206C216.682 71.8886 215.93 72.9719 214.952 73.7757C213.973 74.5445 212.663 74.929 211.02 74.929Z" fill="#AB1B1B" fill-opacity="0.1"></path>
  <path d="M164.758 114.579C164.408 114.579 164.233 114.387 164.233 114.002V80.8201C164.233 80.4357 164.408 80.2435 164.758 80.2435H169.213C169.563 80.2435 169.738 80.4357 169.738 80.8201V94.5543H177.548V80.8201C177.548 80.4357 177.706 80.2435 178.02 80.2435H182.476C182.825 80.2435 183 80.4357 183 80.8201V114.002C183 114.387 182.825 114.579 182.476 114.579H178.02C177.706 114.579 177.548 114.387 177.548 114.002V99.4818H169.738V114.002C169.738 114.387 169.563 114.579 169.213 114.579H164.758Z" fill="#FF9696" fill-opacity="0.1"></path>
  <path d="M150.221 114.579C149.907 114.579 149.749 114.387 149.749 114.002V85.2234H144.298C143.948 85.2234 143.773 85.0312 143.773 84.6468V80.8201C143.773 80.4357 143.948 80.2435 144.298 80.2435H160.705C161.02 80.2435 161.177 80.4357 161.177 80.8201V84.6468C161.177 85.0312 161.02 85.2234 160.705 85.2234H155.254V114.002C155.254 114.387 155.079 114.579 154.729 114.579H150.221Z" fill="#FF9696" fill-opacity="0.1"></path>
  <path d="M124.312 114.579C123.962 114.579 123.823 114.369 123.893 113.95L130.864 80.7153C130.934 80.4007 131.127 80.2435 131.441 80.2435H137.365C137.679 80.2435 137.871 80.4007 137.941 80.7153L144.913 113.95C144.983 114.369 144.861 114.579 144.546 114.579H139.566C139.287 114.579 139.112 114.439 139.042 114.16L135.53 93.0341C135.32 91.8109 135.111 90.6053 134.901 89.4171C134.726 88.1939 134.569 86.9882 134.429 85.8H134.324C134.15 86.9882 133.975 88.1939 133.8 89.4171C133.66 90.6053 133.486 91.8109 133.276 93.0341L129.659 114.16C129.624 114.439 129.467 114.579 129.187 114.579H124.312ZM130.026 107.03L130.864 102.365H137.784L138.675 107.03H130.026Z" fill="#FF9696" fill-opacity="0.1"></path>
  <path d="M108.343 114.579C108.028 114.579 107.871 114.387 107.871 114.002V80.8201C107.871 80.4357 108.028 80.2435 108.343 80.2435H114.791C118.076 80.2435 120.487 81.1346 122.025 82.9169C123.597 84.6992 124.384 87.495 124.384 91.3042C124.384 94.8338 123.58 97.5422 121.972 99.4294C120.4 101.317 118.076 102.26 115 102.26H113.375V114.002C113.375 114.387 113.218 114.579 112.904 114.579H108.343ZM113.375 97.2801H114.791C116.223 97.2801 117.254 96.7909 117.883 95.8124C118.547 94.8338 118.879 93.3486 118.879 91.3566C118.879 89.155 118.547 87.5823 117.883 86.6388C117.254 85.6952 116.258 85.2234 114.896 85.2234H113.375V97.2801Z" fill="#FF9696" fill-opacity="0.1"></path>
  <path d="M94.2631 114.893C91.1528 114.893 88.7764 113.985 87.1339 112.168C85.5264 110.35 84.7226 107.642 84.7226 104.042V90.8324C84.7226 87.1979 85.5264 84.4721 87.1339 82.6548C88.7764 80.8376 91.1528 79.929 94.2631 79.929C97.3385 79.929 99.6974 80.8376 101.34 82.6548C102.982 84.4721 103.804 87.1979 103.804 90.8324V104.042C103.804 107.642 102.982 110.35 101.34 112.168C99.6974 113.985 97.3385 114.893 94.2631 114.893ZM94.2631 109.861C95.6261 109.861 96.6395 109.389 97.3035 108.446C98.0025 107.502 98.3519 105.947 98.3519 103.78V91.0945C98.3519 88.8929 98.0025 87.3202 97.3035 86.3767C96.6395 85.4331 95.6261 84.9613 94.2631 84.9613C92.9002 84.9613 91.8693 85.4331 91.1703 86.3767C90.5063 87.3202 90.1743 88.8929 90.1743 91.0945V103.78C90.1743 105.947 90.5063 107.502 91.1703 108.446C91.8693 109.389 92.9002 109.861 94.2631 109.861Z" fill="#AB1B1B" fill-opacity="0.1"></path>
  <path d="M72.0459 114.893C68.9356 114.893 66.5592 113.985 64.9167 112.168C63.3091 110.315 62.5053 107.45 62.5053 103.571V91.2518C62.5053 87.4775 63.3091 84.6468 64.9167 82.7597C66.5592 80.8725 68.9356 79.929 72.0459 79.929C74.2126 79.929 76.0298 80.4182 77.4976 81.3967C78.9654 82.3752 80.0138 83.7557 80.6428 85.5379C81.3068 87.3202 81.499 89.4171 81.2195 91.8284C81.1496 92.1779 80.9923 92.3526 80.7477 92.3526H76.1871C75.8376 92.3526 75.6978 92.1604 75.7677 91.776C75.9425 89.5394 75.7328 87.8445 75.1387 86.6912C74.5446 85.538 73.4962 84.9613 71.9935 84.9613C70.6305 84.9613 69.6171 85.4681 68.9531 86.4815C68.2891 87.495 67.9571 89.155 67.9571 91.4615V103.256C67.9571 105.632 68.2891 107.327 68.9531 108.341C69.652 109.354 70.6829 109.861 72.0459 109.861C73.6185 109.861 74.6669 109.249 75.1911 108.026C75.7153 106.768 75.925 105.108 75.8202 103.046C75.7852 102.627 75.925 102.417 76.2395 102.417H80.6953C81.0098 102.417 81.202 102.627 81.2719 103.046C81.5515 106.716 80.9049 109.616 79.3323 111.748C77.7947 113.845 75.3658 114.893 72.0459 114.893Z" fill="#AB1B1B" fill-opacity="0.1"></path>
  <path d="M49.2655 114.893C46.1202 114.893 43.7788 113.95 42.2411 112.063C40.7384 110.141 39.987 107.258 39.987 103.413V80.7677C39.987 80.4182 40.1443 80.2435 40.4588 80.2435H45.0194C45.3339 80.2435 45.4912 80.4182 45.4912 80.7677V103.256C45.4912 105.632 45.7882 107.327 46.3823 108.341C46.9764 109.354 47.9375 109.861 49.2655 109.861C50.6284 109.861 51.6069 109.372 52.201 108.393C52.7951 107.38 53.0922 105.667 53.0922 103.256V80.7677C53.0922 80.4182 53.2494 80.2435 53.5639 80.2435H58.1245C58.439 80.2435 58.5963 80.4182 58.5963 80.7677V103.413C58.5963 107.258 57.81 110.141 56.2374 112.063C54.6997 113.95 52.3757 114.893 49.2655 114.893Z" fill="#AB1B1B" fill-opacity="0.1"></path>
  <path d="M23.9287 114.579C23.5793 114.579 23.4045 114.387 23.4045 114.002V80.8201C23.4045 80.4357 23.5793 80.2435 23.9287 80.2435H28.3845C28.734 80.2435 28.9087 80.4357 28.9087 80.8201V109.599H37.2436C37.593 109.599 37.7678 109.791 37.7678 110.176V114.002C37.7678 114.387 37.593 114.579 37.2436 114.579H23.9287Z" fill="#AB1B1B" fill-opacity="0.1"></path>
  <path d="M8.02034 114.893C5.39931 114.893 3.40733 114.002 2.0444 112.22C0.681467 110.438 0 107.729 0 104.095V91.1994C0 87.5299 0.803781 84.7342 2.41134 82.8121C4.05385 80.89 6.41278 79.929 9.48811 79.929C12.6333 79.929 15.0097 80.9249 16.6173 82.9169C18.2249 84.9089 18.9063 87.6173 18.6617 91.0421C18.6268 91.4265 18.4695 91.6187 18.1899 91.6187L13.6293 91.5663C13.3148 91.5663 13.175 91.3916 13.21 91.0421C13.3847 89.12 13.1575 87.6348 12.5285 86.5864C11.8995 85.503 10.9035 84.9613 9.54053 84.9613C8.14265 84.9613 7.11172 85.4681 6.44772 86.4815C5.78373 87.495 5.45173 89.0851 5.45173 91.2518V103.675C5.45173 105.912 5.73131 107.502 6.29046 108.446C6.88456 109.389 7.89802 109.861 9.33085 109.861C10.6588 109.861 11.6723 109.337 12.3712 108.288C13.0702 107.205 13.4197 105.58 13.4197 103.413V101.054H9.80264C9.48811 101.054 9.33085 100.862 9.33085 100.478V97.385C9.33085 97.0006 9.48811 96.8084 9.80264 96.8084H18.2948C18.6093 96.8084 18.7665 97.0006 18.7665 97.385V106.978C18.7665 108.655 18.784 110.036 18.819 111.119C18.8889 112.168 18.9762 113.111 19.0811 113.95C19.151 114.369 19.0112 114.579 18.6617 114.579H15.0971C14.7826 114.579 14.6078 114.422 14.5729 114.107C14.503 113.688 14.4331 113.199 14.3632 112.639C14.3283 112.045 14.3108 111.329 14.3108 110.49H14.206C13.6818 111.853 12.9304 112.936 11.9519 113.74C10.9734 114.509 9.66285 114.893 8.02034 114.893Z" fill="#AB1B1B" fill-opacity="0.1"></path>
  <path d="M367.758 114.579C367.408 114.579 367.233 114.387 367.233 114.002V80.8201C367.233 80.4357 367.408 80.2435 367.758 80.2435H372.213C372.563 80.2435 372.738 80.4357 372.738 80.8201V94.5543H380.548V80.8201C380.548 80.4357 380.706 80.2435 381.02 80.2435H385.476C385.825 80.2435 386 80.4357 386 80.8201V114.002C386 114.387 385.825 114.579 385.476 114.579H381.02C380.706 114.579 380.548 114.387 380.548 114.002V99.4818H372.738V114.002C372.738 114.387 372.563 114.579 372.213 114.579H367.758Z" fill="#FF9696" fill-opacity="0.1"></path>
  <path d="M353.221 114.579C352.907 114.579 352.749 114.387 352.749 114.002V85.2234H347.298C346.948 85.2234 346.773 85.0312 346.773 84.6468V80.8201C346.773 80.4357 346.948 80.2435 347.298 80.2435H363.705C364.02 80.2435 364.177 80.4357 364.177 80.8201V84.6468C364.177 85.0312 364.02 85.2234 363.705 85.2234H358.254V114.002C358.254 114.387 358.079 114.579 357.729 114.579H353.221Z" fill="#FF9696" fill-opacity="0.1"></path>
  <path d="M327.312 114.579C326.962 114.579 326.823 114.369 326.893 113.95L333.865 80.7153C333.934 80.4007 334.127 80.2435 334.441 80.2435H340.365C340.679 80.2435 340.871 80.4007 340.941 80.7153L347.913 113.95C347.983 114.369 347.861 114.579 347.546 114.579H342.566C342.287 114.579 342.112 114.439 342.042 114.16L338.53 93.0341C338.32 91.8109 338.111 90.6053 337.901 89.4171C337.726 88.1939 337.569 86.9882 337.429 85.8H337.324C337.15 86.9882 336.975 88.1939 336.8 89.4171C336.66 90.6053 336.486 91.8109 336.276 93.0341L332.659 114.16C332.624 114.439 332.467 114.579 332.187 114.579H327.312ZM333.026 107.03L333.865 102.365H340.784L341.675 107.03H333.026Z" fill="#FF9696" fill-opacity="0.1"></path>
  <path d="M311.343 114.579C311.028 114.579 310.871 114.387 310.871 114.002V80.8201C310.871 80.4357 311.028 80.2435 311.343 80.2435H317.791C321.076 80.2435 323.487 81.1346 325.025 82.9169C326.597 84.6992 327.384 87.495 327.384 91.3042C327.384 94.8338 326.58 97.5422 324.972 99.4294C323.4 101.317 321.076 102.26 318 102.26H316.375V114.002C316.375 114.387 316.218 114.579 315.904 114.579H311.343ZM316.375 97.2801H317.791C319.223 97.2801 320.254 96.7909 320.883 95.8124C321.547 94.8338 321.879 93.3486 321.879 91.3566C321.879 89.155 321.547 87.5823 320.883 86.6388C320.254 85.6952 319.258 85.2234 317.896 85.2234H316.375V97.2801Z" fill="#FF9696" fill-opacity="0.1"></path>
  <path d="M297.263 114.893C294.153 114.893 291.776 113.985 290.134 112.168C288.526 110.35 287.723 107.642 287.723 104.042V90.8324C287.723 87.1979 288.526 84.4721 290.134 82.6548C291.776 80.8376 294.153 79.929 297.263 79.929C300.338 79.929 302.697 80.8376 304.34 82.6548C305.982 84.4721 306.804 87.1979 306.804 90.8324V104.042C306.804 107.642 305.982 110.35 304.34 112.168C302.697 113.985 300.338 114.893 297.263 114.893ZM297.263 109.861C298.626 109.861 299.64 109.389 300.304 108.446C301.002 107.502 301.352 105.947 301.352 103.78V91.0945C301.352 88.8929 301.002 87.3202 300.304 86.3767C299.64 85.4331 298.626 84.9613 297.263 84.9613C295.9 84.9613 294.869 85.4331 294.17 86.3767C293.506 87.3202 293.174 88.8929 293.174 91.0945V103.78C293.174 105.947 293.506 107.502 294.17 108.446C294.869 109.389 295.9 109.861 297.263 109.861Z" fill="#AB1B1B" fill-opacity="0.1"></path>
  <path d="M275.046 114.893C271.936 114.893 269.559 113.985 267.917 112.168C266.309 110.315 265.505 107.45 265.505 103.571V91.2518C265.505 87.4775 266.309 84.6468 267.917 82.7597C269.559 80.8725 271.936 79.929 275.046 79.929C277.213 79.929 279.03 80.4182 280.498 81.3967C281.965 82.3752 283.014 83.7557 283.643 85.5379C284.307 87.3202 284.499 89.4171 284.219 91.8284C284.15 92.1779 283.992 92.3526 283.748 92.3526H279.187C278.838 92.3526 278.698 92.1604 278.768 91.776C278.942 89.5394 278.733 87.8445 278.139 86.6912C277.545 85.538 276.496 84.9613 274.993 84.9613C273.63 84.9613 272.617 85.4681 271.953 86.4815C271.289 87.495 270.957 89.155 270.957 91.4615V103.256C270.957 105.632 271.289 107.327 271.953 108.341C272.652 109.354 273.683 109.861 275.046 109.861C276.618 109.861 277.667 109.249 278.191 108.026C278.715 106.768 278.925 105.108 278.82 103.046C278.785 102.627 278.925 102.417 279.239 102.417H283.695C284.01 102.417 284.202 102.627 284.272 103.046C284.551 106.716 283.905 109.616 282.332 111.748C280.795 113.845 278.366 114.893 275.046 114.893Z" fill="#AB1B1B" fill-opacity="0.1"></path>
  <path d="M252.265 114.893C249.12 114.893 246.779 113.95 245.241 112.063C243.738 110.141 242.987 107.258 242.987 103.413V80.7677C242.987 80.4182 243.144 80.2435 243.459 80.2435H248.019C248.334 80.2435 248.491 80.4182 248.491 80.7677V103.256C248.491 105.632 248.788 107.327 249.382 108.341C249.976 109.354 250.937 109.861 252.265 109.861C253.628 109.861 254.607 109.372 255.201 108.393C255.795 107.38 256.092 105.667 256.092 103.256V80.7677C256.092 80.4182 256.249 80.2435 256.564 80.2435H261.124C261.439 80.2435 261.596 80.4182 261.596 80.7677V103.413C261.596 107.258 260.81 110.141 259.237 112.063C257.7 113.95 255.376 114.893 252.265 114.893Z" fill="#AB1B1B" fill-opacity="0.1"></path>
  <path d="M226.929 114.579C226.579 114.579 226.405 114.387 226.405 114.002V80.8201C226.405 80.4357 226.579 80.2435 226.929 80.2435H231.384C231.734 80.2435 231.909 80.4357 231.909 80.8201V109.599H240.244C240.593 109.599 240.768 109.791 240.768 110.176V114.002C240.768 114.387 240.593 114.579 240.244 114.579H226.929Z" fill="#AB1B1B" fill-opacity="0.1"></path>
  <path d="M211.02 114.893C208.399 114.893 206.407 114.002 205.044 112.22C203.681 110.438 203 107.729 203 104.095V91.1994C203 87.5299 203.804 84.7342 205.411 82.8121C207.054 80.89 209.413 79.929 212.488 79.929C215.633 79.929 218.01 80.9249 219.617 82.9169C221.225 84.9089 221.906 87.6173 221.662 91.0421C221.627 91.4265 221.469 91.6187 221.19 91.6187L216.629 91.5663C216.315 91.5663 216.175 91.3916 216.21 91.0421C216.385 89.12 216.158 87.6348 215.529 86.5864C214.899 85.503 213.903 84.9613 212.541 84.9613C211.143 84.9613 210.112 85.4681 209.448 86.4815C208.784 87.495 208.452 89.0851 208.452 91.2518V103.675C208.452 105.912 208.731 107.502 209.29 108.446C209.885 109.389 210.898 109.861 212.331 109.861C213.659 109.861 214.672 109.337 215.371 108.288C216.07 107.205 216.42 105.58 216.42 103.413V101.054H212.803C212.488 101.054 212.331 100.862 212.331 100.478V97.385C212.331 97.0006 212.488 96.8084 212.803 96.8084H221.295C221.609 96.8084 221.767 97.0006 221.767 97.385V106.978C221.767 108.655 221.784 110.036 221.819 111.119C221.889 112.168 221.976 113.111 222.081 113.95C222.151 114.369 222.011 114.579 221.662 114.579H218.097C217.783 114.579 217.608 114.422 217.573 114.107C217.503 113.688 217.433 113.199 217.363 112.639C217.328 112.045 217.311 111.329 217.311 110.49H217.206C216.682 111.853 215.93 112.936 214.952 113.74C213.973 114.509 212.663 114.893 211.02 114.893Z" fill="#AB1B1B" fill-opacity="0.1"></path>
</svg>
