<svg width="200" height="74" viewBox="0 0 200 74" fill="none" xmlns="http://www.w3.org/2000/svg">
<path d="M16.7116 56.1154C13.1923 56.1154 10.2692 55.6539 7.9231 54.75C5.59617 53.8462 3.84617 52.6154 2.6731 51.0385C1.50002 49.4615 0.923096 47.75 0.923096 45.9039C0.923096 43.8077 1.65386 42.25 3.09617 41.2308C4.53848 40.2115 6.32694 39.6923 8.4231 39.6923C8.4231 42.2692 8.76925 44.4808 9.46156 46.3269C10.1539 48.1923 11.1731 49.6154 12.5385 50.6154C13.9039 51.6154 15.5769 52.1154 17.5769 52.1154C20.3269 52.1154 22.4808 51.3269 24.0385 49.75C25.5769 48.1731 26.3654 46.1731 26.3654 43.75C26.3654 42.4231 26.1539 41.2115 25.7308 40.1346C25.3077 39.0577 24.5 37.9808 23.3462 36.8846C22.1731 35.7885 20.4808 34.5769 18.25 33.25C15.1154 31.3462 12.6731 29.2692 10.9423 27.0385C9.21156 24.8077 8.32694 21.9039 8.32694 18.3269C8.32694 15.4808 9.03848 12.9423 10.4423 10.7308C11.8462 8.51924 13.8269 6.78847 16.4039 5.5577C18.9808 4.32693 22 3.71155 25.4616 3.71155C28.4616 3.71155 31 4.03847 33.0577 4.71155C35.1346 5.38462 36.6923 6.28847 37.7308 7.46155C38.7693 8.63462 39.3077 9.98078 39.3077 11.5C39.3077 13.2115 38.6923 14.5962 37.4808 15.6346C36.2692 16.6731 34.2692 17.2115 31.5192 17.2115C31.5577 15.8269 31.4039 14.4039 31.0192 12.9231C30.6346 11.4423 29.9616 10.2115 28.9808 9.21155C28 8.21155 26.5962 7.71155 24.7308 7.71155C23.4039 7.71155 22.1346 8.00001 20.9039 8.59616C19.6923 9.19232 18.6923 10.1154 17.9039 11.3462C17.1154 12.5769 16.7308 14.1539 16.7308 16.0577C16.7308 17.6731 17.0577 19.0385 17.6923 20.1539C18.3269 21.2692 19.2885 22.2885 20.5385 23.2308C21.8077 24.1539 23.3846 25.1923 25.2885 26.3269C27.4808 27.6154 29.2692 28.9808 30.6731 30.4231C32.0769 31.8654 33.1154 33.4039 33.8077 35.0192C34.5 36.6346 34.8462 38.4231 34.8462 40.3654C34.8462 43.6923 34.1154 46.5192 32.6346 48.8654C31.1539 51.1923 29.0577 52.9808 26.3462 54.2115C23.6346 55.4423 20.4231 56.0577 16.7116 56.0577V56.1154Z" fill="#CCB064" fill-opacity="0.05"/>
<path d="M43.75 56.1154C41.4231 56.1154 39.6539 55.4616 38.4231 54.1539C37.2116 52.8462 36.5962 51.1731 36.5962 49.1154C36.5962 48.3077 36.6539 47.3462 36.7693 46.2692C36.8847 45.1731 37.077 43.9808 37.3462 42.6923C37.6154 41.4039 37.8654 40.1154 38.0962 38.8462L44.0962 10.8654C44.2308 10.1923 44.3654 9.53848 44.4616 8.90387C44.5577 8.26925 44.5962 7.78848 44.5962 7.51925C44.5962 6.28848 44.25 5.48079 43.5577 5.13463C42.8654 4.76925 41.9231 4.59617 40.7308 4.59617H39.5193L40.1539 1.1731H55.1539L46.7308 40.2116C46.5385 40.9808 46.3654 41.8077 46.1923 42.7116C46.0193 43.6154 45.9039 44.5 45.8077 45.3846C45.7116 46.2692 45.6731 47.0385 45.6731 47.7116C45.6731 48.75 45.8654 49.5577 46.25 50.1346C46.6347 50.7116 47.1731 51 47.8847 51C48.5577 51 49.2116 50.8269 49.8847 50.5C50.5577 50.1731 51.2885 49.7308 52.0962 49.2116L53.5193 51.5C52.4808 52.5962 51.1347 53.6346 49.5193 54.6346C47.9039 55.6346 45.9808 56.1346 43.7308 56.1346L43.75 56.1154Z" fill="#CCB064" fill-opacity="0.05"/>
<path d="M61.4615 56.1154C59.1731 56.1154 57.4231 55.4808 56.1731 54.1923C54.9423 52.9038 54.3269 51.2115 54.3269 49.1154C54.3269 48.3077 54.4039 47.3461 54.5385 46.2308C54.6731 45.1154 54.8654 43.9231 55.1154 42.6538C55.3462 41.3846 55.5962 40.1538 55.8269 38.9038L58.4616 26.4038C58.5962 25.7885 58.7116 25.1923 58.7885 24.6154C58.8654 24.0385 58.9039 23.6154 58.9039 23.3269C58.9039 22.1346 58.5962 21.3846 58.0192 21.0385C57.4231 20.7115 56.5 20.5385 55.2692 20.5385H54.1923L54.8269 17.1154H69.3846L64.4616 40.1731C64.3269 40.9808 64.1731 41.8461 64 42.75C63.8269 43.6538 63.6923 44.5385 63.5769 45.3846C63.4616 46.2308 63.4039 47 63.4039 47.6731C63.4039 48.7115 63.6154 49.5192 64.0192 50.0961C64.4231 50.6731 64.9616 50.9615 65.6346 50.9615C66.3462 50.9615 67.0385 50.7885 67.7115 50.4615C68.3846 50.1346 69.0962 49.6923 69.8462 49.1731L71.2692 51.4615C70.2308 52.5577 68.8846 53.5961 67.2692 54.5961C65.6539 55.5961 63.7308 56.0961 61.4808 56.0961L61.4615 56.1154ZM65.75 10.2115C64.4231 10.2115 63.3077 9.88461 62.4231 9.21153C61.5385 8.53846 61.0962 7.51923 61.0962 6.13461C61.0962 4.9423 61.3462 3.96153 61.8462 3.17307C62.3462 2.38461 63.0192 1.78846 63.8462 1.38461C64.6731 0.980764 65.6154 0.769226 66.6731 0.769226C67.9615 0.769226 69.0769 1.09615 70.0192 1.73076C70.9616 2.36538 71.4423 3.40384 71.4423 4.82692C71.4423 6.05769 71.1539 7.07692 70.5769 7.86538C70 8.65384 69.2885 9.23076 68.4423 9.61538C67.5769 10 66.6731 10.1923 65.7308 10.1923L65.75 10.2115Z" fill="#CCB064" fill-opacity="0.05"/>
<path d="M119 55.9807C117.423 55.9807 116.115 55.673 115.038 55.0577C113.962 54.4423 113.173 53.5769 112.654 52.4807C112.135 51.3846 111.865 50.1538 111.865 48.7692C111.865 47.673 111.962 46.4038 112.154 44.9807C112.346 43.5577 112.654 41.8077 113.077 39.7692L114.288 34.1346C114.423 33.4615 114.615 32.6346 114.865 31.6346C115.115 30.6346 115.288 29.5961 115.442 28.5C115.577 27.4038 115.654 26.4615 115.654 25.6538C115.654 24.7115 115.481 23.8077 115.154 22.9807C114.827 22.1538 114.077 21.7307 112.942 21.7307C112.038 21.7307 111.154 22.0577 110.269 22.7307C109.385 23.4038 108.538 24.2692 107.731 25.3654C106.923 26.4615 106.154 27.673 105.442 29C104.731 30.3269 104.115 31.6923 103.615 33.0769C103.115 34.4615 102.731 35.75 102.442 36.923L101.577 41.0577C101.442 41.7692 101.25 42.7692 101.038 44.0577C100.827 45.3461 100.615 46.7115 100.404 48.1538C100.192 49.5961 100.019 50.9807 99.8654 52.2884C99.7308 53.5961 99.6346 54.6346 99.5769 55.3846H90.5192C90.5577 54.5769 90.6731 53.5192 90.8462 52.2115C91.0192 50.9038 91.2308 49.4807 91.4808 47.923C91.75 46.3846 92 44.8461 92.2692 43.3461C92.5385 41.8461 92.8077 40.5192 93.0962 39.3846L94.2308 34.0961C94.4231 33.1346 94.6154 32.1538 94.8462 31.0961C95.0577 30.0577 95.2308 29.0384 95.3462 28.0577C95.4616 27.0769 95.5192 26.2692 95.5192 25.5961C95.5192 24.7307 95.3846 23.9038 95.1154 23.0577C94.8462 22.2307 94.1731 21.8077 93.0769 21.8077C91.8846 21.8077 90.7116 22.3269 89.5385 23.3846C88.3654 24.423 87.2692 25.7692 86.25 27.423C85.2308 29.0577 84.3654 30.7692 83.6539 32.5192C82.9423 34.2884 82.4423 35.8654 82.1539 37.3077L78.3077 55.3654H69.4615L75.4616 26.8077C75.5962 26.1923 75.7308 25.5577 75.8269 24.923C75.9231 24.2884 75.9615 23.7884 75.9615 23.4615C75.9615 22.2307 75.6346 21.423 74.9615 21.0769C74.2885 20.7307 73.3654 20.5384 72.1731 20.5384H71.1731L71.8077 17.1154H86.2308L84.7308 24.8269H85.2308C87.0769 21.923 88.9808 19.8077 90.9423 18.4807C92.8846 17.1538 95.1154 16.4807 97.5769 16.4807C99.3846 16.4807 100.808 16.8269 101.827 17.5192C102.846 18.2115 103.596 19.1154 104.038 20.2692C104.481 21.4038 104.712 22.673 104.712 24.0577V24.5961C104.712 24.7692 104.692 24.9615 104.635 25.2115H105.058C106.769 22.2115 108.635 19.9807 110.654 18.5384C112.673 17.0961 115.019 16.3654 117.692 16.3654C119.5 16.3654 120.923 16.7307 121.981 17.4807C123.019 18.2115 123.769 19.173 124.231 20.3654C124.673 21.5577 124.904 22.8461 124.904 24.2115C124.904 25.4423 124.75 26.8269 124.442 28.3461C124.135 29.8654 123.827 31.25 123.558 32.4807L121.923 40.4038C121.596 41.7884 121.327 43.0961 121.135 44.3269C120.942 45.5577 120.846 46.673 120.846 47.673C120.846 48.673 121.058 49.4423 121.462 50C121.865 50.5577 122.423 50.8269 123.135 50.8269C123.846 50.8269 124.519 50.6923 125.135 50.4423C125.75 50.173 126.442 49.7692 127.212 49.1923L128.635 51.4807C127.596 52.5769 126.288 53.5961 124.712 54.5577C123.135 55.5 121.231 55.9807 119 55.9807Z" fill="#CCB064" fill-opacity="0.05"/>
<path d="M133.058 26.4231C133.288 25.4808 133.481 24.5962 133.596 23.7885C133.712 22.9808 133.769 22.3654 133.769 21.9231C133.769 20.8846 133.442 20.1923 132.769 19.8846C132.096 19.5769 131.038 19.4231 129.558 19.4231H128.558L129.135 17.1346H139.058L137.423 26.4231H137.635C138.635 24.5769 139.712 22.8846 140.885 21.3462C142.058 19.8077 143.346 18.6154 144.769 17.75C146.192 16.8654 147.808 16.4231 149.615 16.4231C152.192 16.4231 154.115 17.4616 155.442 19.5192C156.75 21.5962 157.404 24.6539 157.404 28.6923C157.404 30.8269 157.135 33.1346 156.615 35.6154C156.096 38.0962 155.288 40.5385 154.231 42.9231C153.154 45.3269 151.846 47.5192 150.269 49.5192C148.692 51.5192 146.865 53.1154 144.769 54.3077C142.673 55.5 140.346 56.0962 137.769 56.0962C136.538 56.0962 135.385 55.9231 134.346 55.5962C133.308 55.2692 132.365 54.8269 131.558 54.3077C131.519 54.7308 131.442 55.2692 131.346 55.8846C131.25 56.5 131.135 57.1154 130.981 57.75L129.692 63.4616C129.596 64.0385 129.462 64.7308 129.308 65.5769C129.135 66.4039 129.058 67.1346 129.058 67.75C129.058 68.7885 129.423 69.4808 130.135 69.7885C130.846 70.0962 131.923 70.25 133.346 70.25H134.558L134.058 72.5385H123.423L133.058 26.4231ZM137.846 53.6154C139.654 53.6154 141.327 53.0769 142.885 51.9808C144.423 50.8846 145.808 49.4231 147.019 47.5962C148.231 45.7692 149.25 43.75 150.096 41.5577C150.923 39.3654 151.577 37.1539 152.019 34.9231C152.481 32.6923 152.692 30.6154 152.692 28.7116C152.692 26.9423 152.538 25.3846 152.231 24.0385C151.923 22.6731 151.442 21.6154 150.808 20.8269C150.173 20.0385 149.269 19.6539 148.135 19.6539C147 19.6539 145.865 20.0385 144.769 20.7885C143.673 21.5577 142.635 22.5769 141.635 23.8654C140.635 25.1539 139.712 26.5577 138.885 28.0769C138.058 29.5962 137.346 31.1154 136.788 32.6154C136.212 34.1154 135.808 35.4808 135.577 36.7116L132.442 51.1346C132.865 51.8077 133.558 52.3846 134.481 52.8846C135.404 53.3846 136.538 53.6346 137.865 53.6346L137.846 53.6154Z" fill="#CCB064" fill-opacity="0.05"/>
<path d="M164.327 56.1154C162.654 56.1154 161.385 55.5384 160.5 54.3654C159.615 53.1923 159.173 51.6346 159.173 49.6923C159.173 48.7884 159.25 47.7692 159.385 46.6154C159.519 45.4808 159.712 44.2884 159.962 43.0769C160.192 41.8654 160.442 40.7115 160.673 39.6154L163.673 24.9808C163.769 24.4615 163.846 23.9423 163.923 23.4038C164 22.8846 164.038 22.4231 164.038 22.0385C164.038 20.9038 163.75 20.1731 163.154 19.8654C162.558 19.5577 161.558 19.4038 160.115 19.4038H159.038L159.462 17.1154H169.808L164.885 40.6731C164.692 41.4808 164.519 42.4038 164.346 43.4231C164.173 44.4423 164.019 45.4423 163.885 46.4231C163.75 47.4038 163.673 48.25 163.673 48.9615C163.673 50.25 163.885 51.2308 164.288 51.8846C164.692 52.5577 165.308 52.8846 166.115 52.8846C166.885 52.8846 167.635 52.6923 168.365 52.2692C169.096 51.8654 169.904 51.3461 170.75 50.7308L171.827 52.4423C170.865 53.3461 169.75 54.1731 168.462 54.9423C167.173 55.7115 165.788 56.0769 164.327 56.0769V56.1154ZM169.25 8.42307C168.385 8.42307 167.692 8.1923 167.154 7.71153C166.596 7.23076 166.327 6.49999 166.327 5.49999C166.327 4.73076 166.462 4.07691 166.75 3.53845C167.038 2.99999 167.423 2.55768 167.885 2.24999C168.365 1.9423 168.904 1.78845 169.519 1.78845C170.327 1.78845 171 2.01922 171.558 2.49999C172.096 2.98076 172.385 3.71153 172.385 4.71153C172.385 5.61537 172.231 6.34614 171.923 6.88461C171.615 7.42307 171.212 7.82691 170.75 8.05768C170.269 8.28845 169.769 8.42307 169.25 8.42307Z" fill="#CCB064" fill-opacity="0.05"/>
<path d="M182.519 56.1154C180.327 56.1154 178.346 55.5962 176.558 54.5385C174.769 53.5 173.365 51.9039 172.308 49.7885C171.269 47.6731 170.731 45 170.731 41.75C170.731 39.5577 171 37.2885 171.558 34.9423C172.096 32.5769 172.923 30.3077 173.981 28.1346C175.058 25.9423 176.365 23.9616 177.904 22.2116C179.442 20.4423 181.212 19.0385 183.192 18C185.173 16.9616 187.346 16.4231 189.731 16.4231C191.769 16.4231 193.481 16.7692 194.827 17.4616C196.192 18.1539 197.173 19.0385 197.827 20.0962C198.462 21.1731 198.788 22.3077 198.788 23.4808C198.788 24.1923 198.635 24.8462 198.327 25.4039C198.019 25.9808 197.558 26.4231 196.942 26.7308C196.327 27.0385 195.538 27.1923 194.596 27.1923C194.635 24.8077 194.192 22.8654 193.231 21.3462C192.269 19.8269 190.846 19.0577 188.942 19.0577C187.327 19.0577 185.827 19.5577 184.442 20.5577C183.058 21.5577 181.827 22.8846 180.731 24.5192C179.635 26.1539 178.712 28 177.942 30.0192C177.173 32.0385 176.577 34.0962 176.154 36.1539C175.731 38.2308 175.519 40.1346 175.519 41.9039C175.519 45.4231 176.231 48.1346 177.615 50C179.019 51.8846 180.904 52.8269 183.288 52.8269C185.481 52.8269 187.365 52.2692 188.923 51.1539C190.5 50.0385 191.731 48.7885 192.635 47.4039C192.827 47.5 192.962 47.6731 193.058 47.9423C193.154 48.2116 193.192 48.4808 193.192 48.7692C193.192 49.7308 192.808 50.7692 192.019 51.9039C191.231 53.0385 190.038 54.0385 188.442 54.8654C186.846 55.6923 184.865 56.1154 182.481 56.1154H182.519Z" fill="#CCB064" fill-opacity="0.05"/>
</svg>
