<svg width="104" height="38" viewBox="0 0 104 38" fill="none" xmlns="http://www.w3.org/2000/svg">
<g clip-path="url(#clip0_4059_65)">
<path d="M8.69 29.18C6.86 29.18 5.34 28.94 4.12 28.47C2.91 28 2 27.36 1.39 26.54C0.779996 25.72 0.479996 24.83 0.479996 23.87C0.479996 22.78 0.859996 21.97 1.61 21.44C2.36 20.91 3.29 20.64 4.38 20.64C4.38 21.98 4.56 23.13 4.92 24.09C5.28 25.06 5.81 25.8 6.52 26.32C7.23 26.84 8.1 27.1 9.14 27.1C10.57 27.1 11.69 26.69 12.5 25.87C13.3 25.05 13.71 24.01 13.71 22.75C13.71 22.06 13.6 21.43 13.38 20.87C13.16 20.31 12.74 19.75 12.14 19.18C11.53 18.61 10.65 17.98 9.49 17.29C7.86 16.3 6.59 15.22 5.69 14.06C4.79 12.9 4.33 11.39 4.33 9.53C4.33 8.05 4.7 6.73 5.43 5.58C6.16 4.43 7.19 3.53 8.53 2.89C9.87 2.25 11.44 1.93 13.24 1.93C14.8 1.93 16.12 2.1 17.19 2.45C18.27 2.8 19.08 3.27 19.62 3.88C20.16 4.49 20.44 5.19 20.44 5.98C20.44 6.87 20.12 7.59 19.49 8.13C18.86 8.67 17.82 8.95 16.39 8.95C16.41 8.23 16.33 7.49 16.13 6.72C15.93 5.95 15.58 5.31 15.07 4.79C14.56 4.27 13.83 4.01 12.86 4.01C12.17 4.01 11.51 4.16 10.87 4.47C10.24 4.78 9.72 5.26 9.31 5.9C8.9 6.54 8.7 7.36 8.7 8.35C8.7 9.19 8.87 9.9 9.2 10.48C9.53 11.06 10.03 11.59 10.68 12.08C11.34 12.56 12.16 13.1 13.15 13.69C14.29 14.36 15.22 15.07 15.95 15.82C16.68 16.57 17.22 17.37 17.58 18.21C17.94 19.05 18.12 19.98 18.12 20.99C18.12 22.72 17.74 24.19 16.97 25.41C16.2 26.62 15.11 27.55 13.7 28.19C12.29 28.83 10.62 29.15 8.69 29.15V29.18Z" fill="#CCB064"/>
<path d="M22.75 29.18C21.54 29.18 20.62 28.84 19.98 28.16C19.35 27.48 19.03 26.61 19.03 25.54C19.03 25.12 19.06 24.62 19.12 24.06C19.18 23.49 19.28 22.87 19.42 22.2C19.56 21.53 19.69 20.86 19.81 20.2L22.93 5.65C23 5.3 23.07 4.96 23.12 4.63C23.17 4.3 23.19 4.05 23.19 3.91C23.19 3.27 23.01 2.85 22.65 2.67C22.29 2.48 21.8 2.39 21.18 2.39H20.55L20.88 0.610001H28.68L24.3 20.91C24.2 21.31 24.11 21.74 24.02 22.21C23.93 22.68 23.87 23.14 23.82 23.6C23.77 24.06 23.75 24.46 23.75 24.81C23.75 25.35 23.85 25.77 24.05 26.07C24.25 26.37 24.53 26.52 24.9 26.52C25.25 26.52 25.59 26.43 25.94 26.26C26.29 26.09 26.67 25.86 27.09 25.59L27.83 26.78C27.29 27.35 26.59 27.89 25.75 28.41C24.91 28.93 23.91 29.19 22.74 29.19L22.75 29.18Z" fill="#CCB064"/>
<path d="M31.96 29.18C30.77 29.18 29.86 28.85 29.21 28.18C28.57 27.51 28.25 26.63 28.25 25.54C28.25 25.12 28.29 24.62 28.36 24.04C28.43 23.46 28.53 22.84 28.66 22.18C28.78 21.52 28.91 20.88 29.03 20.23L30.4 13.73C30.47 13.41 30.53 13.1 30.57 12.8C30.61 12.5 30.63 12.28 30.63 12.13C30.63 11.51 30.47 11.12 30.17 10.94C29.86 10.77 29.38 10.68 28.74 10.68H28.18L28.51 8.9H36.08L33.52 20.89C33.45 21.31 33.37 21.76 33.28 22.23C33.19 22.7 33.12 23.16 33.06 23.6C33 24.04 32.97 24.44 32.97 24.79C32.97 25.33 33.08 25.75 33.29 26.05C33.5 26.35 33.78 26.5 34.13 26.5C34.5 26.5 34.86 26.41 35.21 26.24C35.56 26.07 35.93 25.84 36.32 25.57L37.06 26.76C36.52 27.33 35.82 27.87 34.98 28.39C34.14 28.91 33.14 29.17 31.97 29.17L31.96 29.18ZM34.19 5.31C33.5 5.31 32.92 5.14 32.46 4.79C32 4.44 31.77 3.91 31.77 3.19C31.77 2.57 31.9 2.06 32.16 1.65C32.42 1.24 32.77 0.930001 33.2 0.720001C33.63 0.510001 34.12 0.400002 34.67 0.400002C35.34 0.400002 35.92 0.570002 36.41 0.900002C36.9 1.23 37.15 1.77 37.15 2.51C37.15 3.15 37 3.68 36.7 4.09C36.4 4.5 36.03 4.8 35.59 5C35.14 5.2 34.67 5.3 34.18 5.3L34.19 5.31Z" fill="#CCB064"/>
<path d="M61.88 29.11C61.06 29.11 60.38 28.95 59.82 28.63C59.26 28.31 58.85 27.86 58.58 27.29C58.31 26.72 58.17 26.08 58.17 25.36C58.17 24.79 58.22 24.13 58.32 23.39C58.42 22.65 58.58 21.74 58.8 20.68L59.43 17.75C59.5 17.4 59.6 16.97 59.73 16.45C59.86 15.93 59.95 15.39 60.03 14.82C60.1 14.25 60.14 13.76 60.14 13.34C60.14 12.85 60.05 12.38 59.88 11.95C59.71 11.52 59.32 11.3 58.73 11.3C58.26 11.3 57.8 11.47 57.34 11.82C56.88 12.17 56.44 12.62 56.02 13.19C55.6 13.76 55.2 14.39 54.83 15.08C54.46 15.77 54.14 16.48 53.88 17.2C53.62 17.92 53.42 18.59 53.27 19.2L52.82 21.35C52.75 21.72 52.65 22.24 52.54 22.91C52.43 23.58 52.32 24.29 52.21 25.04C52.1 25.79 52.01 26.51 51.93 27.19C51.86 27.87 51.81 28.41 51.78 28.8H47.07C47.09 28.38 47.15 27.83 47.24 27.15C47.33 26.47 47.44 25.73 47.57 24.92C47.71 24.12 47.84 23.32 47.98 22.54C48.12 21.76 48.26 21.07 48.41 20.48L49 17.73C49.1 17.23 49.2 16.72 49.32 16.17C49.43 15.63 49.52 15.1 49.58 14.59C49.64 14.08 49.67 13.66 49.67 13.31C49.67 12.86 49.6 12.43 49.46 11.99C49.32 11.56 48.97 11.34 48.4 11.34C47.78 11.34 47.17 11.61 46.56 12.16C45.95 12.7 45.38 13.4 44.85 14.26C44.32 15.11 43.87 16 43.5 16.91C43.13 17.83 42.87 18.65 42.72 19.4L40.72 28.79H36.12L39.24 13.94C39.31 13.62 39.38 13.29 39.43 12.96C39.48 12.63 39.5 12.37 39.5 12.2C39.5 11.56 39.33 11.14 38.98 10.96C38.63 10.78 38.15 10.68 37.53 10.68H37.01L37.34 8.9H44.84L44.06 12.91H44.32C45.28 11.4 46.27 10.3 47.29 9.61C48.3 8.92 49.46 8.57 50.74 8.57C51.68 8.57 52.42 8.75 52.95 9.11C53.48 9.47 53.87 9.94 54.1 10.54C54.33 11.13 54.45 11.79 54.45 12.51V12.79C54.45 12.88 54.44 12.98 54.41 13.11H54.63C55.52 11.55 56.49 10.39 57.54 9.64C58.59 8.89 59.81 8.51 61.2 8.51C62.14 8.51 62.88 8.7 63.43 9.09C63.97 9.47 64.36 9.97 64.6 10.59C64.83 11.21 64.95 11.88 64.95 12.59C64.95 13.23 64.87 13.95 64.71 14.74C64.55 15.53 64.39 16.25 64.25 16.89L63.4 21.01C63.23 21.73 63.09 22.41 62.99 23.05C62.89 23.69 62.84 24.27 62.84 24.79C62.84 25.31 62.95 25.71 63.16 26C63.37 26.29 63.66 26.43 64.03 26.43C64.4 26.43 64.75 26.36 65.07 26.23C65.39 26.09 65.75 25.88 66.15 25.58L66.89 26.77C66.35 27.34 65.67 27.87 64.85 28.37C64.03 28.86 63.04 29.11 61.88 29.11Z" fill="#CCB064"/>
<path d="M69.19 13.74C69.31 13.25 69.41 12.79 69.47 12.37C69.53 11.95 69.56 11.63 69.56 11.4C69.56 10.86 69.39 10.5 69.04 10.34C68.69 10.18 68.14 10.1 67.37 10.1H66.85L67.15 8.91H72.31L71.46 13.74H71.57C72.09 12.78 72.65 11.9 73.26 11.1C73.87 10.3 74.54 9.68 75.28 9.23C76.02 8.77 76.86 8.54 77.8 8.54C79.14 8.54 80.14 9.08 80.83 10.15C81.51 11.23 81.85 12.82 81.85 14.92C81.85 16.03 81.71 17.23 81.44 18.52C81.17 19.81 80.75 21.08 80.2 22.32C79.64 23.57 78.96 24.71 78.14 25.75C77.32 26.79 76.37 27.62 75.28 28.24C74.19 28.86 72.98 29.17 71.64 29.17C71 29.17 70.4 29.08 69.86 28.91C69.32 28.74 68.83 28.51 68.41 28.24C68.39 28.46 68.35 28.74 68.3 29.06C68.25 29.38 68.19 29.7 68.11 30.03L67.44 33C67.39 33.3 67.32 33.66 67.24 34.1C67.15 34.53 67.11 34.91 67.11 35.23C67.11 35.77 67.3 36.13 67.67 36.29C68.04 36.45 68.6 36.53 69.34 36.53H69.97L69.71 37.72H64.18L69.19 13.74ZM71.68 27.88C72.62 27.88 73.49 27.6 74.3 27.03C75.1 26.46 75.82 25.7 76.45 24.75C77.08 23.8 77.61 22.75 78.05 21.61C78.48 20.47 78.82 19.32 79.05 18.16C79.29 17 79.4 15.92 79.4 14.93C79.4 14.01 79.32 13.2 79.16 12.5C79 11.79 78.75 11.24 78.42 10.83C78.09 10.42 77.62 10.22 77.03 10.22C76.44 10.22 75.85 10.42 75.28 10.81C74.71 11.21 74.17 11.74 73.65 12.41C73.13 13.08 72.65 13.81 72.22 14.6C71.79 15.39 71.42 16.18 71.13 16.96C70.83 17.74 70.62 18.45 70.5 19.09L68.87 26.59C69.09 26.94 69.45 27.24 69.93 27.5C70.41 27.76 71 27.89 71.69 27.89L71.68 27.88Z" fill="#CCB064"/>
<path d="M85.45 29.18C84.58 29.18 83.92 28.88 83.46 28.27C83 27.66 82.77 26.85 82.77 25.84C82.77 25.37 82.81 24.84 82.88 24.24C82.95 23.65 83.05 23.03 83.18 22.4C83.3 21.77 83.43 21.17 83.55 20.6L85.11 12.99C85.16 12.72 85.2 12.45 85.24 12.17C85.28 11.9 85.3 11.66 85.3 11.46C85.3 10.87 85.15 10.49 84.84 10.33C84.53 10.17 84.01 10.09 83.26 10.09H82.7L82.92 8.9H88.3L85.74 21.15C85.64 21.57 85.55 22.05 85.46 22.58C85.37 23.11 85.29 23.63 85.22 24.14C85.15 24.65 85.11 25.09 85.11 25.46C85.11 26.13 85.22 26.64 85.43 26.98C85.64 27.33 85.96 27.5 86.38 27.5C86.78 27.5 87.17 27.4 87.55 27.18C87.93 26.97 88.35 26.7 88.79 26.38L89.35 27.27C88.85 27.74 88.27 28.17 87.6 28.57C86.93 28.97 86.21 29.16 85.45 29.16V29.18ZM88.01 4.38C87.56 4.38 87.2 4.26 86.92 4.01C86.63 3.76 86.49 3.38 86.49 2.86C86.49 2.46 86.56 2.12 86.71 1.84C86.86 1.56 87.06 1.33 87.3 1.17C87.55 1.01 87.83 0.93 88.15 0.93C88.57 0.93 88.92 1.05 89.21 1.3C89.49 1.55 89.64 1.93 89.64 2.45C89.64 2.92 89.56 3.3 89.4 3.58C89.24 3.86 89.03 4.07 88.79 4.19C88.54 4.31 88.28 4.38 88.01 4.38Z" fill="#CCB064"/>
<path d="M94.91 29.18C93.77 29.18 92.74 28.91 91.81 28.36C90.88 27.82 90.15 26.99 89.6 25.89C89.06 24.79 88.78 23.4 88.78 21.71C88.78 20.57 88.92 19.39 89.21 18.17C89.49 16.94 89.92 15.76 90.47 14.63C91.03 13.49 91.71 12.46 92.51 11.55C93.31 10.63 94.23 9.9 95.26 9.36C96.29 8.82 97.42 8.54 98.66 8.54C99.72 8.54 100.61 8.72 101.31 9.08C102.02 9.44 102.53 9.9 102.87 10.45C103.2 11.01 103.37 11.6 103.37 12.21C103.37 12.58 103.29 12.92 103.13 13.21C102.97 13.51 102.73 13.74 102.41 13.9C102.09 14.06 101.68 14.14 101.19 14.14C101.21 12.9 100.98 11.89 100.48 11.1C99.98 10.31 99.24 9.91 98.25 9.91C97.41 9.91 96.63 10.17 95.91 10.69C95.19 11.21 94.55 11.9 93.98 12.75C93.41 13.6 92.93 14.56 92.53 15.61C92.13 16.66 91.82 17.73 91.6 18.8C91.38 19.88 91.27 20.87 91.27 21.79C91.27 23.62 91.64 25.03 92.36 26C93.09 26.98 94.07 27.47 95.31 27.47C96.45 27.47 97.43 27.18 98.24 26.6C99.06 26.02 99.7 25.37 100.17 24.65C100.27 24.7 100.34 24.79 100.39 24.93C100.44 25.07 100.46 25.21 100.46 25.36C100.46 25.86 100.26 26.4 99.85 26.99C99.44 27.58 98.82 28.1 97.99 28.53C97.16 28.96 96.13 29.18 94.89 29.18H94.91Z" fill="#CCB064"/>
</g>
<defs>
<clipPath id="clip0_4059_65">
<rect width="104" height="38" fill="white"/>
</clipPath>
</defs>
</svg>
