<svg width="53" height="41" viewBox="0 0 53 41" fill="none" xmlns="http://www.w3.org/2000/svg">
<g clip-path="url(#clip0_7837_2198)">
<path d="M52.0257 4.3965C52.0257 5.997 50.8696 7.4259 49.2511 7.7117C46.8234 8.169 44.4534 9.1979 42.1413 10.8555C38.9621 13.0846 37.3436 15.8283 37.3436 19.0863C37.3436 22.0586 40.176 21.9442 42.4303 21.7156C50.4072 20.8582 55.7251 29.3177 51.5054 36.1196C47.4592 42.6357 37.2858 42.3499 32.6615 36.7483C26.0141 28.689 28.3263 14.0563 35.7251 7.1973C39.2511 3.9393 43.3552 1.9387 48.095 1.0813C50.1182 0.681203 52.0257 2.3388 52.0257 4.3965ZM24.28 4.3965C24.28 5.997 23.124 7.4259 21.5055 7.7117C19.0777 8.169 16.7078 9.1979 14.3956 10.8555C11.2165 13.0846 9.598 15.8283 9.598 19.0863C9.598 22.0586 12.4303 21.9442 14.6847 21.7156C22.6615 20.8582 27.9794 29.3177 23.7598 36.1196C19.7136 42.6357 9.5402 42.3499 4.91588 36.7483C-1.73151 28.6318 0.580626 13.9992 7.9795 7.1401C11.5055 3.8821 15.6095 1.8815 20.3494 1.0242C22.3725 0.681204 24.28 2.3388 24.28 4.3965Z" fill="#C4AB6A" fill-opacity="0.3"/>
</g>
<defs>
<clipPath id="clip0_7837_2198">
<rect width="53" height="41" fill="white"/>
</clipPath>
</defs>
</svg>
