<svg width="53" height="41" viewBox="0 0 53 41" fill="none" xmlns="http://www.w3.org/2000/svg">
<g clip-path="url(#clip0_4065_95)">
<mask id="mask0_4065_95" style="mask-type:luminance" maskUnits="userSpaceOnUse" x="0" y="0" width="53" height="41">
<path d="M53 0H0V41H53V0Z" fill="white"/>
</mask>
<g mask="url(#mask0_4065_95)">
<mask id="mask1_4065_95" style="mask-type:luminance" maskUnits="userSpaceOnUse" x="0" y="0" width="53" height="41">
<path d="M53 0H0V41H53V0Z" fill="white"/>
</mask>
<g mask="url(#mask1_4065_95)">
<path d="M52.0257 4.39647C52.0257 5.99697 50.8696 7.42587 49.2511 7.71167C46.8234 8.16897 44.4534 9.19787 42.1413 10.8555C38.9621 13.0846 37.3436 15.8283 37.3436 19.0863C37.3436 22.0586 40.176 21.9442 42.4303 21.7156C50.4072 20.8582 55.7251 29.3177 51.5054 36.1196C47.4592 42.6357 37.2858 42.3499 32.6615 36.7483C26.0141 28.689 28.3263 14.0563 35.7251 7.19727C39.2511 3.93927 43.3552 1.93867 48.095 1.08127C50.1182 0.681177 52.0257 2.33877 52.0257 4.39647ZM24.28 4.39647C24.28 5.99697 23.124 7.42587 21.5055 7.71167C19.0777 8.16897 16.7078 9.19787 14.3956 10.8555C11.2165 13.0846 9.598 15.8283 9.598 19.0863C9.598 22.0586 12.4303 21.9442 14.6847 21.7156C22.6615 20.8582 27.9794 29.3177 23.7598 36.1196C19.7136 42.6357 9.5402 42.3499 4.91588 36.7483C-1.73151 28.6318 0.580622 13.9992 7.9795 7.14007C11.5055 3.88207 15.6095 1.88147 20.3494 1.02417C22.3725 0.681178 24.28 2.33877 24.28 4.39647Z" fill="#EB5E55" fill-opacity="0.3"/>
</g>
</g>
</g>
<defs>
<clipPath id="clip0_4065_95">
<rect width="53" height="41" fill="white"/>
</clipPath>
</defs>
</svg>
