<svg width="177" height="23" viewBox="0 0 177 23" fill="none" xmlns="http://www.w3.org/2000/svg">
<path d="M5.944 22.192C4.024 22.192 2.59467 21.616 1.656 20.464C0.738667 19.2907 0.28 17.5307 0.28 15.184V1.36C0.28 1.14667 0.376 1.04 0.568 1.04H3.352C3.544 1.04 3.64 1.14667 3.64 1.36V15.088C3.64 16.5387 3.82133 17.5733 4.184 18.192C4.54667 18.8107 5.13333 19.12 5.944 19.12C6.776 19.12 7.37333 18.8213 7.736 18.224C8.09867 17.6053 8.28 16.56 8.28 15.088V1.36C8.28 1.14667 8.376 1.04 8.568 1.04H11.352C11.544 1.04 11.64 1.14667 11.64 1.36V15.184C11.64 17.5307 11.16 19.2907 10.2 20.464C9.26133 21.616 7.84267 22.192 5.944 22.192ZM14.5703 22C14.3783 22 14.2823 21.8827 14.2823 21.648V1.392C14.2823 1.15733 14.3783 1.04 14.5703 1.04H18.9223C20.9489 1.04 22.4316 1.53067 23.3703 2.512C24.3089 3.472 24.7783 4.99733 24.7783 7.088C24.7783 8.64533 24.5543 9.89333 24.1063 10.832C23.6796 11.7493 23.0609 12.4 22.2503 12.784L22.2183 12.816L25.5463 21.584C25.6103 21.8613 25.5249 22 25.2903 22H22.2823C22.1329 22 22.0263 21.9253 21.9623 21.776L19.0823 13.456H17.6423V21.648C17.6423 21.8827 17.5463 22 17.3543 22H14.5703ZM17.6423 10.608H18.9543C19.8289 10.608 20.4583 10.3307 20.8423 9.776C21.2263 9.22133 21.4183 8.37867 21.4183 7.248C21.4183 6.13867 21.2156 5.33867 20.8103 4.848C20.4049 4.336 19.7649 4.08 18.8903 4.08H17.6423V10.608ZM32.7253 22.192C30.8266 22.192 29.3759 21.6373 28.3733 20.528C27.3919 19.4187 26.9013 17.7653 26.9013 15.568V7.504C26.9013 5.28533 27.3919 3.62133 28.3733 2.512C29.3759 1.40267 30.8266 0.848 32.7253 0.848C34.6026 0.848 36.0426 1.40267 37.0453 2.512C38.0479 3.62133 38.5493 5.28533 38.5493 7.504V15.568C38.5493 17.7653 38.0479 19.4187 37.0453 20.528C36.0426 21.6373 34.6026 22.192 32.7253 22.192ZM32.7253 19.12C33.5573 19.12 34.1759 18.832 34.5813 18.256C35.0079 17.68 35.2213 16.7307 35.2213 15.408V7.664C35.2213 6.32 35.0079 5.36 34.5813 4.784C34.1759 4.208 33.5573 3.92 32.7253 3.92C31.8933 3.92 31.2639 4.208 30.8373 4.784C30.4319 5.36 30.2293 6.32 30.2293 7.664V15.408C30.2293 16.7307 30.4319 17.68 30.8373 18.256C31.2639 18.832 31.8933 19.12 32.7253 19.12ZM45.0003 22.192C43.8483 22.192 42.9309 21.936 42.2483 21.424C41.5656 20.912 41.0963 20.2187 40.8403 19.344C40.5843 18.448 40.4989 17.4347 40.5843 16.304C40.6056 16.0907 40.6803 15.984 40.8083 15.984H42.4083C42.5789 15.984 42.6536 16.0907 42.6323 16.304C42.4829 17.6053 42.6216 18.576 43.0483 19.216C43.4963 19.856 44.1789 20.176 45.0963 20.176C45.9283 20.176 46.5469 19.9307 46.9523 19.44C47.3789 18.928 47.5923 18.1387 47.5923 17.072C47.5923 16.1333 47.4643 15.3653 47.2083 14.768C46.9523 14.1493 46.5043 13.6053 45.8643 13.136L43.2723 11.088C42.3976 10.4053 41.7469 9.63733 41.3203 8.784C40.9149 7.90933 40.7122 6.864 40.7122 5.648C40.7336 4.13333 41.1176 2.96 41.8643 2.128C42.6323 1.27467 43.6883 0.848 45.0323 0.848C46.6109 0.848 47.7629 1.36 48.4883 2.384C49.2349 3.408 49.5229 4.80533 49.3523 6.576C49.3523 6.81067 49.2776 6.928 49.1283 6.928H47.4963C47.3469 6.928 47.2829 6.81067 47.3043 6.576C47.4323 5.38133 47.2936 4.464 46.8883 3.824C46.4829 3.184 45.8749 2.864 45.0643 2.864C44.3816 2.864 43.8376 3.088 43.4323 3.536C43.0269 3.984 42.8136 4.66667 42.7923 5.584C42.7923 6.43733 42.9416 7.16267 43.2403 7.76C43.5389 8.35733 43.9976 8.90133 44.6163 9.392L47.1123 11.344C47.7309 11.8133 48.2216 12.3147 48.5843 12.848C48.9683 13.36 49.2456 13.9573 49.4163 14.64C49.5869 15.3013 49.6723 16.08 49.6723 16.976C49.6723 18.5973 49.2883 19.8773 48.5203 20.816C47.7736 21.7333 46.6003 22.192 45.0003 22.192ZM55.172 22C55.0227 22 54.948 21.904 54.948 21.712V14.832L50.788 1.392C50.724 1.15733 50.7773 1.04 50.948 1.04H52.836C52.964 1.04 53.0387 1.104 53.06 1.232L55.012 8.464C55.1827 9.06133 55.3427 9.68 55.492 10.32C55.6627 10.9387 55.8227 11.5573 55.972 12.176H56.004C56.1747 11.5573 56.3453 10.9387 56.516 10.32C56.6867 9.68 56.8467 9.05067 56.996 8.432L58.948 1.232C58.9907 1.104 59.0653 1.04 59.172 1.04H60.996C61.1667 1.04 61.2307 1.15733 61.188 1.392L57.028 14.8V21.712C57.028 21.904 56.964 22 56.836 22H55.172ZM63.3248 22C63.1968 22 63.1328 21.904 63.1328 21.712V1.328C63.1328 1.136 63.2074 1.04 63.3568 1.04H65.9808C66.1301 1.04 66.2154 1.104 66.2368 1.232L69.6927 13.52C69.8634 14.0747 70.0341 14.704 70.2048 15.408C70.3754 16.0907 70.5354 16.784 70.6848 17.488C70.8554 18.1707 70.9941 18.7893 71.1008 19.344H71.1648C71.1434 18.9173 71.1221 18.448 71.1008 17.936C71.0794 17.424 71.0581 16.9013 71.0368 16.368C71.0368 15.8347 71.0261 15.312 71.0048 14.8C71.0048 14.288 71.0048 13.8187 71.0048 13.392V1.296C71.0048 1.12533 71.0794 1.04 71.2288 1.04H72.7968C72.9461 1.04 73.0208 1.12533 73.0208 1.296V21.712C73.0208 21.904 72.9461 22 72.7968 22H70.1728C70.0661 22 69.9914 21.9467 69.9488 21.84L66.5888 9.936C66.2688 8.80533 65.9914 7.71733 65.7568 6.672C65.5221 5.60533 65.3088 4.61333 65.1168 3.696H65.0528C65.0741 4.31467 65.0848 5.008 65.0848 5.776C65.1061 6.52267 65.1168 7.28 65.1168 8.048C65.1381 8.79467 65.1488 9.47733 65.1488 10.096V21.712C65.1488 21.904 65.0848 22 64.9568 22H63.3248ZM81.0243 22.192C79.4029 22.192 78.1656 21.6693 77.3123 20.624C76.4589 19.5787 76.0323 18 76.0323 15.888V7.152C76.0323 5.04 76.4589 3.46133 77.3123 2.416C78.1656 1.37067 79.4029 0.848 81.0243 0.848C82.1976 0.848 83.1683 1.136 83.9363 1.712C84.7043 2.26667 85.2483 3.06667 85.5683 4.112C85.8883 5.136 85.9629 6.36267 85.7923 7.792C85.7496 7.96267 85.6749 8.048 85.5683 8.048H83.9363C83.7443 8.048 83.6696 7.94133 83.7123 7.728C83.8403 6.128 83.6803 4.92267 83.2323 4.112C82.8056 3.28 82.0696 2.864 81.0243 2.864C80.0856 2.864 79.3603 3.216 78.8483 3.92C78.3576 4.624 78.1123 5.75467 78.1123 7.312V15.728C78.1123 17.264 78.3576 18.3947 78.8483 19.12C79.3603 19.824 80.0856 20.176 81.0243 20.176C82.1336 20.176 82.8909 19.7387 83.2963 18.864C83.7229 17.9893 83.8829 16.8053 83.7763 15.312C83.7336 15.0987 83.8083 14.992 84.0003 14.992H85.5043C85.6963 14.992 85.8029 15.0987 85.8243 15.312C85.9523 17.5093 85.6109 19.2053 84.8003 20.4C83.9896 21.5947 82.7309 22.192 81.0243 22.192ZM93.0755 22C92.9262 22 92.8515 21.904 92.8515 21.712V1.328C92.8515 1.136 92.9262 1.04 93.0755 1.04H96.1475C97.9608 1.04 99.2835 1.56267 100.116 2.608C100.969 3.632 101.396 5.25333 101.396 7.472C101.396 9.54133 100.969 11.1307 100.116 12.24C99.2622 13.328 98.0035 13.872 96.3395 13.872H94.9315V21.712C94.9315 21.904 94.8568 22 94.7075 22H93.0755ZM94.9315 11.888H96.1475C97.2568 11.888 98.0568 11.536 98.5475 10.832C99.0595 10.128 99.3155 9.02933 99.3155 7.536C99.3155 5.91467 99.0595 4.76267 98.5475 4.08C98.0568 3.376 97.2995 3.024 96.2755 3.024H94.9315V11.888ZM104.044 22C103.895 22 103.82 21.904 103.82 21.712V1.328C103.82 1.136 103.895 1.04 104.044 1.04H107.564C109.335 1.04 110.626 1.50933 111.436 2.448C112.268 3.38667 112.684 4.816 112.684 6.736C112.684 8.336 112.45 9.60533 111.98 10.544C111.532 11.4613 110.903 12.08 110.092 12.4V12.432L113.388 21.648C113.431 21.8827 113.356 22 113.164 22H111.404C111.298 22 111.212 21.936 111.148 21.808L108.044 12.88H105.9V21.712C105.9 21.904 105.826 22 105.676 22H104.044ZM105.9 10.96H107.628C108.695 10.96 109.452 10.6293 109.9 9.968C110.37 9.28533 110.604 8.26133 110.604 6.896C110.604 5.50933 110.348 4.528 109.836 3.952C109.346 3.35467 108.578 3.056 107.532 3.056H105.9V10.96ZM120.274 22.192C118.674 22.192 117.437 21.7013 116.562 20.72C115.709 19.7387 115.282 18.256 115.282 16.272V6.832C115.282 4.80533 115.709 3.30133 116.562 2.32C117.437 1.33867 118.674 0.848 120.274 0.848C121.874 0.848 123.112 1.33867 123.986 2.32C124.861 3.30133 125.298 4.80533 125.298 6.832V16.272C125.298 18.256 124.861 19.7387 123.986 20.72C123.112 21.7013 121.874 22.192 120.274 22.192ZM120.274 20.176C121.234 20.176 121.96 19.856 122.45 19.216C122.962 18.5547 123.218 17.52 123.218 16.112V6.96C123.218 5.53067 122.962 4.496 122.45 3.856C121.96 3.19467 121.234 2.864 120.274 2.864C119.336 2.864 118.61 3.19467 118.098 3.856C117.608 4.496 117.362 5.53067 117.362 6.96V16.112C117.362 17.52 117.608 18.5547 118.098 19.216C118.61 19.856 119.336 20.176 120.274 20.176ZM131.907 22.192C130.755 22.192 129.837 21.936 129.155 21.424C128.472 20.912 128.003 20.2187 127.747 19.344C127.491 18.448 127.405 17.4347 127.491 16.304C127.512 16.0907 127.587 15.984 127.715 15.984H129.315C129.485 15.984 129.56 16.0907 129.539 16.304C129.389 17.6053 129.528 18.576 129.955 19.216C130.403 19.856 131.085 20.176 132.003 20.176C132.835 20.176 133.453 19.9307 133.859 19.44C134.285 18.928 134.499 18.1387 134.499 17.072C134.499 16.1333 134.371 15.3653 134.115 14.768C133.859 14.1493 133.411 13.6053 132.771 13.136L130.179 11.088C129.304 10.4053 128.653 9.63733 128.227 8.784C127.821 7.90933 127.618 6.864 127.618 5.648C127.64 4.13333 128.024 2.96 128.771 2.128C129.539 1.27467 130.595 0.848 131.939 0.848C133.517 0.848 134.669 1.36 135.395 2.384C136.141 3.408 136.429 4.80533 136.259 6.576C136.259 6.81067 136.184 6.928 136.035 6.928H134.403C134.253 6.928 134.189 6.81067 134.211 6.576C134.339 5.38133 134.2 4.464 133.795 3.824C133.389 3.184 132.781 2.864 131.971 2.864C131.288 2.864 130.744 3.088 130.339 3.536C129.933 3.984 129.72 4.66667 129.699 5.584C129.699 6.43733 129.848 7.16267 130.147 7.76C130.445 8.35733 130.904 8.90133 131.523 9.392L134.019 11.344C134.637 11.8133 135.128 12.3147 135.491 12.848C135.875 13.36 136.152 13.9573 136.323 14.64C136.493 15.3013 136.579 16.08 136.579 16.976C136.579 18.5973 136.195 19.8773 135.427 20.816C134.68 21.7333 133.507 22.192 131.907 22.192ZM141.665 22C141.516 22 141.441 21.904 141.441 21.712V3.056H138.081C137.911 3.056 137.825 2.96 137.825 2.768V1.328C137.825 1.136 137.911 1.04 138.081 1.04H146.881C147.031 1.04 147.105 1.136 147.105 1.328V2.768C147.105 2.96 147.031 3.056 146.881 3.056H143.521V21.712C143.521 21.904 143.436 22 143.265 22H141.665ZM146.722 22C146.572 22 146.508 21.8933 146.53 21.68L150.69 1.264C150.711 1.11467 150.807 1.04 150.978 1.04H153.218C153.388 1.04 153.484 1.11467 153.506 1.264L157.698 21.68C157.719 21.8933 157.655 22 157.506 22H155.746C155.618 22 155.532 21.936 155.49 21.808L152.898 7.952C152.748 7.20533 152.599 6.46933 152.45 5.744C152.322 4.99733 152.204 4.25067 152.098 3.504H152.034C151.927 4.25067 151.81 4.99733 151.682 5.744C151.575 6.46933 151.447 7.216 151.298 7.984L148.706 21.808C148.684 21.936 148.61 22 148.482 22H146.722ZM149.282 16.848L149.666 14.832H154.466L154.914 16.848H149.282ZM160.947 22C160.797 22 160.723 21.904 160.723 21.712V3.056H157.363C157.192 3.056 157.107 2.96 157.107 2.768V1.328C157.107 1.136 157.192 1.04 157.363 1.04H166.163C166.312 1.04 166.387 1.136 166.387 1.328V2.768C166.387 2.96 166.312 3.056 166.163 3.056H162.803V21.712C162.803 21.904 162.717 22 162.547 22H160.947ZM168.858 22C168.687 22 168.602 21.904 168.602 21.712V1.328C168.602 1.136 168.676 1.04 168.826 1.04H176.058C176.207 1.04 176.282 1.136 176.282 1.328V2.768C176.282 2.96 176.207 3.056 176.058 3.056H170.682V10.352H175.61C175.759 10.352 175.834 10.448 175.834 10.64V11.984C175.834 12.176 175.759 12.272 175.61 12.272H170.682V19.984H176.058C176.207 19.984 176.282 20.08 176.282 20.272V21.712C176.282 21.904 176.207 22 176.058 22H168.858Z" fill="white" fill-opacity="0.05"/>
</svg>
